<svg width="448" height="96" viewBox="0 0 448 96" fill="none" xmlns="http://www.w3.org/2000/svg">
<path d="M0.398438 35V1.39062H6.98438V14.5156H21.375V1.39062H28.0078V35H21.375V20.7031H6.98438V35H0.398438ZM33.1247 35V1.39062H52.4841V7.55469H39.7106V14.6562H50.7497V20.8438H39.7106V28.8594H52.4841V35H33.1247ZM56.2884 35V1.39062H62.9212V28.8594H76.89V35H56.2884ZM79.7334 35V1.39062H90.5381C94.1475 1.39062 97.0147 2.39844 99.1397 4.41406C101.28 6.41406 102.351 9.02344 102.351 12.2422C102.351 15.4297 101.28 18.0391 99.1397 20.0703C96.9991 22.0859 94.1319 23.0938 90.5381 23.0938H86.3194V35H79.7334ZM86.3194 16.9062H90.5381C92.1162 16.9062 93.3584 16.5 94.2647 15.6875C95.1709 14.8594 95.6241 13.7109 95.6241 12.2422C95.6241 10.7422 95.1709 9.58594 94.2647 8.77344C93.3584 7.96094 92.1162 7.55469 90.5381 7.55469H86.3194V16.9062ZM105.241 35V1.39062H111.827V35H105.241ZM116.967 35V1.39062H123.506L137.287 21.7578L138.67 24.0547V1.39062H145.303V35H138.67L124.842 14.7031L123.553 12.4766V35H116.967ZM148.779 18.1484C148.779 14.8359 149.49 11.8594 150.912 9.21875C152.334 6.57813 154.326 4.51563 156.889 3.03125C159.451 1.53125 162.35 0.78125 165.584 0.78125C169.709 0.78125 173.076 1.8125 175.686 3.875C178.295 5.92188 180.061 8.71094 180.982 12.2422H173.74C172.459 8.69531 169.686 6.92188 165.42 6.92188C162.529 6.92188 160.178 7.97656 158.365 10.0859C156.553 12.1953 155.647 14.8828 155.647 18.1484C155.647 21.4609 156.568 24.1797 158.412 26.3047C160.272 28.4141 162.709 29.4688 165.725 29.4688C168.178 29.4688 170.154 28.9062 171.654 27.7812C173.17 26.6562 174.006 25.0625 174.162 23H166.147V16.8594H181.217V19.7891C181.217 23.0859 180.561 25.9375 179.248 28.3438C177.951 30.75 176.139 32.5703 173.811 33.8047C171.498 35.0234 168.803 35.6328 165.725 35.6328C162.443 35.6328 159.506 34.8828 156.912 33.3828C154.334 31.8672 152.334 29.7812 150.912 27.125C149.49 24.4687 148.779 21.4766 148.779 18.1484ZM190.185 1.39062H197.872L205.068 13.1094L206.216 15.3594L207.435 13.1094L214.63 1.39062H222.318L209.591 22.5312V35H202.912V22.5312L190.185 1.39062ZM220.427 18.1484C220.427 15.6641 220.857 13.3516 221.716 11.2109C222.575 9.07031 223.763 7.23438 225.278 5.70312C226.81 4.17187 228.653 2.96875 230.81 2.09375C232.982 1.21875 235.325 0.78125 237.841 0.78125C241.185 0.78125 244.177 1.53125 246.818 3.03125C249.474 4.51563 251.536 6.57813 253.005 9.21875C254.489 11.8594 255.232 14.8359 255.232 18.1484C255.232 21.4766 254.489 24.4687 253.005 27.125C251.536 29.7812 249.474 31.8672 246.818 33.3828C244.177 34.8828 241.185 35.6328 237.841 35.6328C234.482 35.6328 231.474 34.8828 228.818 33.3828C226.161 31.8672 224.099 29.7812 222.63 27.125C221.161 24.4687 220.427 21.4766 220.427 18.1484ZM227.294 18.1484C227.294 21.4609 228.263 24.1797 230.2 26.3047C232.138 28.4141 234.685 29.4688 237.841 29.4688C240.982 29.4688 243.521 28.4062 245.458 26.2812C247.396 24.1563 248.364 21.4453 248.364 18.1484C248.364 14.8828 247.396 12.1953 245.458 10.0859C243.521 7.97656 240.982 6.92188 237.841 6.92188C234.685 6.92188 232.138 7.97656 230.2 10.0859C228.263 12.1953 227.294 14.8828 227.294 18.1484ZM258.286 21.4531V1.39062H264.919V21.4531C264.919 24.0312 265.497 26.0156 266.653 27.4062C267.825 28.7812 269.598 29.4688 271.973 29.4688C274.317 29.4688 276.067 28.7812 277.223 27.4062C278.395 26.0313 278.981 24.0469 278.981 21.4531V1.39062H285.591V21.4531C285.591 25.9531 284.403 29.4453 282.028 31.9297C279.669 34.3984 276.317 35.6328 271.973 35.6328C267.614 35.6328 264.239 34.3984 261.848 31.9297C259.473 29.4453 258.286 25.9531 258.286 21.4531ZM295.238 7.55469V1.39062H323.692V7.55469H312.746V35H306.16V7.55469H295.238ZM325.949 35V1.39062H332.535V14.5156H346.926V1.39062H353.558V35H346.926V20.7031H332.535V35H325.949ZM358.675 35V1.39062H369.058C372.636 1.39062 375.496 2.375 377.636 4.34375C379.793 6.3125 380.871 8.89844 380.871 12.1016C380.871 14.1797 380.355 16.0078 379.324 17.5859C378.308 19.1641 376.871 20.375 375.011 21.2188L382.3 35H374.753L368.238 22.4141H365.261V35H358.675ZM365.261 16.5781H369.058C370.621 16.5781 371.847 16.1953 372.738 15.4297C373.644 14.6641 374.097 13.5547 374.097 12.1016C374.097 10.6172 373.644 9.49219 372.738 8.72656C371.847 7.94531 370.621 7.55469 369.058 7.55469H365.261V16.5781ZM384.839 35V1.39062H391.425V35H384.839ZM393.706 1.39062H400.761L409.245 23.5859L409.972 25.8828L410.698 23.5859L419.182 1.39062H426.237L413.089 35H406.854L393.706 1.39062ZM428.495 35V1.39062H447.854V7.55469H435.081V14.6562H446.12V20.8438H435.081V28.8594H447.854V35H428.495ZM0.398438 95V61.3906H6.98438V95H0.398438ZM12.1247 95V61.3906H18.6637L32.445 81.7578L33.8278 84.0547V61.3906H40.4606V95H33.8278L19.9997 74.7031L18.7106 72.4766V95H12.1247ZM50.6709 95L63.6787 61.3906H70.9209L83.9287 95H76.7803L73.9912 87.5703H60.6084L57.8194 95H50.6709ZM62.6709 81.8047H71.8819L67.8975 71.2812L67.2647 69.4062L66.6553 71.2812L62.6709 81.8047ZM86.3034 95V61.3906H92.9362V88.8594H106.905V95H86.3034ZM109.702 95V61.3906H116.334V88.8594H130.303V95H109.702ZM138.263 95L151.271 61.3906H158.513L171.521 95H164.373L161.584 87.5703H148.201L145.412 95H138.263ZM150.263 81.8047H159.474L155.49 71.2812L154.857 69.4062L154.248 71.2812L150.263 81.8047ZM173.943 95V61.3906H184.326C187.904 61.3906 190.763 62.375 192.904 64.3438C195.06 66.3125 196.138 68.8984 196.138 72.1016C196.138 74.1797 195.622 76.0078 194.591 77.5859C193.576 79.1641 192.138 80.375 190.279 81.2188L197.568 95H190.021L183.505 82.4141H180.529V95H173.943ZM180.529 76.5781H184.326C185.888 76.5781 187.115 76.1953 188.005 75.4297C188.912 74.6641 189.365 73.5547 189.365 72.1016C189.365 70.6172 188.912 69.4922 188.005 68.7266C187.115 67.9453 185.888 67.5547 184.326 67.5547H180.529V76.5781ZM200.107 95V61.3906H219.466V67.5547H206.693V74.6562H217.732V80.8438H206.693V88.8594H219.466V95H200.107ZM220.645 95L233.653 61.3906H240.895L253.903 95H246.755L243.966 87.5703H230.583L227.794 95H220.645ZM232.645 81.8047H241.856L237.872 71.2812L237.239 69.4062L236.63 71.2812L232.645 81.8047ZM254.661 84.7344H261.317C261.395 86.3906 261.879 87.6562 262.77 88.5312C263.661 89.3906 264.942 89.8203 266.614 89.8203C267.989 89.8203 269.067 89.4688 269.848 88.7656C270.629 88.0625 271.02 87.1484 271.02 86.0234C271.02 84.9141 270.559 83.9922 269.637 83.2578C268.715 82.5078 267.192 81.7812 265.067 81.0781C261.817 80.0312 259.395 78.7266 257.801 77.1641C256.208 75.6016 255.411 73.4844 255.411 70.8125C255.411 67.8281 256.364 65.4141 258.27 63.5703C260.176 61.7109 262.762 60.7812 266.028 60.7812C269.231 60.7812 271.762 61.6328 273.622 63.3359C275.497 65.0391 276.504 67.5312 276.645 70.8125H269.965C269.918 69.5 269.52 68.4766 268.77 67.7422C268.02 67.0078 267.059 66.6406 265.887 66.6406C264.7 66.6406 263.77 66.9531 263.098 67.5781C262.426 68.2031 262.09 69.0859 262.09 70.2266C262.09 70.8516 262.192 71.3906 262.395 71.8438C262.614 72.2813 262.997 72.6875 263.543 73.0625C264.106 73.4375 264.692 73.7578 265.301 74.0234C265.926 74.2891 266.825 74.625 267.997 75.0312C271.528 76.2188 274.028 77.6172 275.497 79.2266C276.965 80.8203 277.7 82.8906 277.7 85.4375C277.7 88.5937 276.645 91.0859 274.536 92.9141C272.442 94.7266 269.77 95.6328 266.52 95.6328C262.786 95.6328 259.895 94.6406 257.848 92.6562C255.817 90.6719 254.754 88.0312 254.661 84.7344ZM287.16 78.1484C287.16 75.6641 287.59 73.3516 288.449 71.2109C289.308 69.0703 290.496 67.2344 292.012 65.7031C293.543 64.1719 295.387 62.9688 297.543 62.0938C299.715 61.2187 302.058 60.7812 304.574 60.7812C307.918 60.7812 310.91 61.5312 313.551 63.0312C316.207 64.5156 318.269 66.5781 319.738 69.2188C321.223 71.8594 321.965 74.8359 321.965 78.1484C321.965 81.4766 321.223 84.4687 319.738 87.125C318.269 89.7812 316.207 91.8672 313.551 93.3828C310.91 94.8828 307.918 95.6328 304.574 95.6328C301.215 95.6328 298.207 94.8828 295.551 93.3828C292.894 91.8672 290.832 89.7812 289.363 87.125C287.894 84.4687 287.16 81.4766 287.16 78.1484ZM294.027 78.1484C294.027 81.4609 294.996 84.1797 296.933 86.3047C298.871 88.4141 301.418 89.4688 304.574 89.4688C307.715 89.4688 310.254 88.4062 312.191 86.2812C314.129 84.1563 315.098 81.4453 315.098 78.1484C315.098 74.8828 314.129 72.1953 312.191 70.0859C310.254 67.9766 307.715 66.9219 304.574 66.9219C301.418 66.9219 298.871 67.9766 296.933 70.0859C294.996 72.1953 294.027 74.8828 294.027 78.1484ZM325.441 95V61.3906H344.496V67.5547H332.027V75.0781H342.644V81.2656H332.027V95H325.441ZM355.128 95V61.3906H361.761V88.8594H375.729V95H355.128ZM378.573 95V61.3906H385.159V95H378.573ZM390.299 95V61.3906H409.354V67.5547H396.885V75.0781H407.502V81.2656H396.885V95H390.299ZM412.244 95V61.3906H431.603V67.5547H418.83V74.6562H429.869V80.8438H418.83V88.8594H431.603V95H412.244Z" fill="#22356F"/>
</svg>
