<svg width="469" height="161" viewBox="0 0 469 161" fill="none" xmlns="http://www.w3.org/2000/svg">
<path d="M2.96094 9.57422C2.96094 7.09766 3.76953 5.02734 5.38672 3.36328C6.98047 1.71484 9.03516 0.890625 11.5508 0.890625C14.043 0.890625 16.0898 1.71484 17.6914 3.36328C19.3086 5.02734 20.1172 7.09766 20.1172 9.57422C20.1172 12.0898 19.3086 14.1797 17.6914 15.8438C16.0898 17.4922 14.043 18.3164 11.5508 18.3164C9.03516 18.3164 6.98047 17.4922 5.38672 15.8438C3.76953 14.1797 2.96094 12.0898 2.96094 9.57422ZM6.99219 4.82812C5.82031 6.0625 5.23438 7.64844 5.23438 9.58594C5.23438 11.5156 5.81641 13.1133 6.98047 14.3789C8.15234 15.6445 9.67578 16.2773 11.5508 16.2773C13.3945 16.2773 14.8984 15.6445 16.0625 14.3789C17.25 13.0977 17.8438 11.4961 17.8438 9.57422C17.8438 7.66797 17.25 6.08594 16.0625 4.82812C14.8984 3.5625 13.3945 2.92969 11.5508 2.92969C9.67578 2.92969 8.15625 3.5625 6.99219 4.82812ZM22.7305 13.7227V5.90625H24.793V13.3945C24.793 14.3398 24.9922 15.0586 25.3906 15.5508C25.7969 16.0352 26.3672 16.2773 27.1016 16.2773C27.9141 16.2773 28.5781 15.9492 29.0938 15.293C29.6094 14.6367 29.8672 13.7461 29.8672 12.6211V5.90625H31.9297V18H30.0781L29.9609 16.3477C29.3516 17.6289 28.2383 18.2695 26.6211 18.2695C25.3711 18.2695 24.4102 17.8672 23.7383 17.0625C23.0664 16.25 22.7305 15.1367 22.7305 13.7227ZM35.7266 18V5.90625H37.5781L37.7188 8.01562C37.9609 7.35938 38.3945 6.82422 39.0195 6.41016C39.6523 5.99609 40.4258 5.78906 41.3398 5.78906V7.85156C40.3477 7.85156 39.5312 8.14453 38.8906 8.73047C38.1875 9.37109 37.8203 10.3242 37.7891 11.5898V18H35.7266ZM48.6875 18V0.480469H50.75V7.41797C51.0078 6.88672 51.4258 6.45703 52.0039 6.12891C52.5898 5.80078 53.2734 5.63672 54.0547 5.63672C55.3047 5.63672 56.2734 6.04688 56.9609 6.86719C57.6484 7.67969 57.9922 8.78125 57.9922 10.1719V18H55.9062V10.5117C55.9062 9.59766 55.6992 8.89453 55.2852 8.40234C54.8711 7.90234 54.293 7.65234 53.5508 7.65234C52.7227 7.65234 52.0469 8 51.5234 8.69531C51.0078 9.39062 50.75 10.332 50.75 11.5195V18H48.6875ZM61.1445 2.17969C61.1445 1.78125 61.2813 1.44922 61.5547 1.18359C61.8281 0.910156 62.1641 0.773438 62.5625 0.773438C62.9609 0.773438 63.3008 0.910156 63.582 1.18359C63.8633 1.44922 64.0039 1.78125 64.0039 2.17969C64.0039 2.5625 63.8633 2.89062 63.582 3.16406C63.3008 3.4375 62.9609 3.57422 62.5625 3.57422C62.1641 3.57422 61.8281 3.44141 61.5547 3.17578C61.2813 2.90234 61.1445 2.57031 61.1445 2.17969ZM61.5312 18V5.90625H63.5938V18H61.5312ZM66.3828 14.9531C66.3828 13.8984 66.7969 13.0742 67.625 12.4805C67.1094 11.7773 66.8555 10.9453 66.8633 9.98438C66.8633 8.71875 67.2852 7.67969 68.1289 6.86719C68.9961 6.05469 70.125 5.64453 71.5156 5.63672C72.0937 5.63672 72.6719 5.72656 73.25 5.90625H77.6328V7.72266H75.5234C75.9219 8.37891 76.1211 9.13281 76.1211 9.98438C76.1211 11.2187 75.6992 12.2422 74.8555 13.0547C74.0273 13.8672 72.9141 14.2773 71.5156 14.2852C70.5391 14.2852 69.668 14.0664 68.9023 13.6289C68.582 13.9492 68.4219 14.3516 68.4219 14.8359C68.4219 15.2188 68.5625 15.5195 68.8438 15.7383C69.125 15.9492 69.4961 16.0547 69.957 16.0547H73.168C74.418 16.0547 75.3672 16.3398 76.0156 16.9102C76.6641 17.4805 76.9883 18.293 76.9883 19.3477C76.9883 20.6289 76.5352 21.6289 75.6289 22.3477C74.7305 23.0664 73.5039 23.4258 71.9492 23.4258C70.2539 23.4258 68.9492 23.0977 68.0352 22.4414C67.1211 21.7852 66.6641 20.8555 66.6641 19.6523C66.6641 18.6758 67.1055 17.9492 67.9883 17.4727C67.5273 17.2305 67.1445 16.8867 66.8398 16.4414C66.5352 15.9961 66.3828 15.5 66.3828 14.9531ZM68.7031 19.582C68.7031 20.2383 68.9883 20.7383 69.5586 21.082C70.1289 21.4258 70.9258 21.5977 71.9492 21.5977C72.9102 21.5977 73.6484 21.4141 74.1641 21.0469C74.6875 20.6797 74.9492 20.1445 74.9492 19.4414C74.9492 18.4023 74.2227 17.8828 72.7695 17.8828H70.4609C69.9141 17.9141 69.4844 18.0742 69.1719 18.3633C68.8594 18.6523 68.7031 19.0586 68.7031 19.582ZM68.9023 9.98438C68.9023 10.7031 69.1406 11.2969 69.6172 11.7656C70.1016 12.2266 70.7266 12.457 71.4922 12.457C72.2578 12.457 72.8789 12.2266 73.3555 11.7656C73.8398 11.2969 74.082 10.7031 74.082 9.98438C74.082 9.25 73.8398 8.64844 73.3555 8.17969C72.8789 7.70312 72.2578 7.46484 71.4922 7.46484C70.7266 7.46484 70.1016 7.70312 69.6172 8.17969C69.1406 8.64844 68.9023 9.25 68.9023 9.98438ZM79.3438 18V0.480469H81.4062V7.41797C81.6641 6.88672 82.082 6.45703 82.6602 6.12891C83.2461 5.80078 83.9297 5.63672 84.7109 5.63672C85.9609 5.63672 86.9297 6.04688 87.6172 6.86719C88.3047 7.67969 88.6484 8.78125 88.6484 10.1719V18H86.5625V10.5117C86.5625 9.59766 86.3555 8.89453 85.9414 8.40234C85.5273 7.90234 84.9492 7.65234 84.207 7.65234C83.3789 7.65234 82.7031 8 82.1797 8.69531C81.6641 9.39062 81.4062 10.332 81.4062 11.5195V18H79.3438ZM92.1875 18V0.480469H94.25V18H92.1875ZM96.5352 5.90625H98.7383L101.938 14.5898L102.172 15.5039L102.418 14.5898L105.605 5.90625H107.832L101.234 23.1562H99.0547L101.07 17.8359L96.5352 5.90625ZM113.398 7.82812V5.90625H115.66L115.684 2.88281H117.77L117.746 5.90625H120.84V7.82812H117.723L117.676 14.3086C117.676 15.0273 117.797 15.5352 118.039 15.832C118.289 16.1289 118.742 16.2773 119.398 16.2773C119.93 16.2773 120.41 16.2031 120.84 16.0547V17.9062C120.41 18.0781 119.844 18.1641 119.141 18.1641C119.109 18.1641 119.078 18.1641 119.047 18.1641C117.875 18.1641 117.008 17.8828 116.445 17.3203C115.891 16.7734 115.613 15.9258 115.613 14.7773C115.613 14.7461 115.613 14.7148 115.613 14.6836L115.66 7.82812H113.398ZM122.68 14.8594C122.68 12.9531 123.809 11.7852 126.066 11.3555L129.758 10.6523V10.0547C129.758 8.39062 129.016 7.55859 127.531 7.55859C126.797 7.55859 126.199 7.75391 125.738 8.14453C125.285 8.53516 125.059 9.07813 125.059 9.77344H123.02C123.051 8.60156 123.48 7.61719 124.309 6.82031C125.145 6.03125 126.219 5.63672 127.531 5.63672C128.891 5.63672 129.949 6.01562 130.707 6.77344C131.473 7.52344 131.855 8.59375 131.855 9.98438V18H129.98L129.887 16.3477C129.551 16.9414 129.063 17.4102 128.422 17.7539C127.781 18.0977 127.043 18.2695 126.207 18.2695C125.137 18.2695 124.281 17.9609 123.641 17.3438C123 16.7266 122.68 15.8984 122.68 14.8594ZM124.766 14.8359C124.766 15.3125 124.926 15.6836 125.246 15.9492C125.566 16.2148 126.023 16.3477 126.617 16.3477C127.672 16.3477 128.488 15.9453 129.066 15.1406C129.527 14.5078 129.758 13.7656 129.758 12.9141V12.457L126.453 13.1719C125.891 13.3125 125.469 13.5078 125.188 13.7578C124.906 14.0078 124.766 14.3672 124.766 14.8359ZM135.336 18V0.480469H137.398V18H135.336ZM140.141 11.9766C140.141 10.1172 140.676 8.60547 141.746 7.44141C142.832 6.23828 144.238 5.63672 145.965 5.63672C147.645 5.63672 148.98 6.17578 149.973 7.25391C150.965 8.32422 151.461 9.83594 151.461 11.7891V12.7734H142.273C142.352 13.875 142.73 14.7461 143.41 15.3867C144.09 16.0273 144.957 16.3477 146.012 16.3477C147.691 16.3477 148.781 15.6914 149.281 14.3789H151.344C150.961 15.6133 150.309 16.5703 149.387 17.25C148.465 17.9297 147.324 18.2695 145.965 18.2695C144.238 18.2695 142.84 17.6914 141.77 16.5352C140.684 15.3633 140.141 13.8438 140.141 11.9766ZM142.297 10.9219H149.375C149.359 9.89844 149.039 9.08203 148.414 8.47266C147.789 7.86328 146.973 7.55859 145.965 7.55859C144.957 7.55859 144.125 7.86719 143.469 8.48438C142.812 9.10156 142.422 9.91406 142.297 10.9219ZM154.391 18V5.90625H156.23L156.359 7.55859C157.023 6.27734 158.156 5.63672 159.758 5.63672C161.008 5.63672 161.977 6.04688 162.664 6.86719C163.352 7.67969 163.695 8.78125 163.695 10.1719V18H161.609V10.5117C161.609 9.59766 161.402 8.89453 160.988 8.40234C160.574 7.90234 159.996 7.65234 159.254 7.65234C158.426 7.65234 157.75 8 157.227 8.69531C156.711 9.39062 156.453 10.332 156.453 11.5195V18H154.391ZM165.547 7.82812V5.90625H167.809L167.832 2.88281H169.918L169.895 5.90625H172.988V7.82812H169.871L169.824 14.3086C169.824 15.0273 169.945 15.5352 170.188 15.832C170.438 16.1289 170.891 16.2773 171.547 16.2773C172.078 16.2773 172.559 16.2031 172.988 16.0547V17.9062C172.559 18.0781 171.992 18.1641 171.289 18.1641C171.258 18.1641 171.227 18.1641 171.195 18.1641C170.023 18.1641 169.156 17.8828 168.594 17.3203C168.039 16.7734 167.762 15.9258 167.762 14.7773C167.762 14.7461 167.762 14.7148 167.762 14.6836L167.809 7.82812H165.547ZM174.57 11.9766C174.57 10.1172 175.105 8.60547 176.176 7.44141C177.262 6.23828 178.668 5.63672 180.395 5.63672C182.074 5.63672 183.41 6.17578 184.402 7.25391C185.395 8.32422 185.891 9.83594 185.891 11.7891V12.7734H176.703C176.781 13.875 177.16 14.7461 177.84 15.3867C178.52 16.0273 179.387 16.3477 180.441 16.3477C182.121 16.3477 183.211 15.6914 183.711 14.3789H185.773C185.391 15.6133 184.738 16.5703 183.816 17.25C182.895 17.9297 181.754 18.2695 180.395 18.2695C178.668 18.2695 177.27 17.6914 176.199 16.5352C175.113 15.3633 174.57 13.8438 174.57 11.9766ZM176.727 10.9219H183.805C183.789 9.89844 183.469 9.08203 182.844 8.47266C182.219 7.86328 181.402 7.55859 180.395 7.55859C179.387 7.55859 178.555 7.86719 177.898 8.48438C177.242 9.10156 176.852 9.91406 176.727 10.9219ZM188.023 11.9531C188.023 10.1641 188.543 8.66016 189.582 7.44141C190.637 6.23828 192.004 5.63672 193.684 5.63672C195.527 5.63672 196.871 6.27734 197.715 7.55859V0.480469H199.777V18H197.938L197.809 16.2188C196.879 17.5781 195.496 18.2617 193.66 18.2695C191.98 18.2695 190.621 17.6758 189.582 16.4883C188.543 15.2695 188.023 13.7578 188.023 11.9531ZM190.156 11.9531C190.156 13.25 190.504 14.3047 191.199 15.1172C191.895 15.9219 192.82 16.3242 193.977 16.3242C195 16.3242 195.879 15.9297 196.613 15.1406C197.363 14.3438 197.738 13.3203 197.738 12.0703V11.9531C197.738 10.6562 197.363 9.60938 196.613 8.8125C195.863 8.00781 194.992 7.60547 194 7.60547C192.883 7.60547 191.961 8.01562 191.234 8.83594C190.516 9.63281 190.156 10.6719 190.156 11.9531ZM206.75 7.82812V5.90625H209.012L209.035 2.88281H211.121L211.098 5.90625H214.191V7.82812H211.074L211.027 14.3086C211.027 15.0273 211.148 15.5352 211.391 15.832C211.641 16.1289 212.094 16.2773 212.75 16.2773C213.281 16.2773 213.762 16.2031 214.191 16.0547V17.9062C213.762 18.0781 213.195 18.1641 212.492 18.1641C212.461 18.1641 212.43 18.1641 212.398 18.1641C211.227 18.1641 210.359 17.8828 209.797 17.3203C209.242 16.7734 208.965 15.9258 208.965 14.7773C208.965 14.7461 208.965 14.7148 208.965 14.6836L209.012 7.82812H206.75ZM216.758 18V0.480469H218.82V7.41797C219.078 6.88672 219.496 6.45703 220.074 6.12891C220.66 5.80078 221.344 5.63672 222.125 5.63672C223.375 5.63672 224.344 6.04688 225.031 6.86719C225.719 7.67969 226.062 8.78125 226.062 10.1719V18H223.977V10.5117C223.977 9.59766 223.77 8.89453 223.355 8.40234C222.941 7.90234 222.363 7.65234 221.621 7.65234C220.793 7.65234 220.117 8 219.594 8.69531C219.078 9.39062 218.82 10.332 218.82 11.5195V18H216.758ZM228.547 11.9766C228.547 10.1172 229.082 8.60547 230.152 7.44141C231.238 6.23828 232.645 5.63672 234.371 5.63672C236.051 5.63672 237.387 6.17578 238.379 7.25391C239.371 8.32422 239.867 9.83594 239.867 11.7891V12.7734H230.68C230.758 13.875 231.137 14.7461 231.816 15.3867C232.496 16.0273 233.363 16.3477 234.418 16.3477C236.098 16.3477 237.187 15.6914 237.688 14.3789H239.75C239.367 15.6133 238.715 16.5703 237.793 17.25C236.871 17.9297 235.73 18.2695 234.371 18.2695C232.645 18.2695 231.246 17.6914 230.176 16.5352C229.09 15.3633 228.547 13.8438 228.547 11.9766ZM230.703 10.9219H237.781C237.766 9.89844 237.445 9.08203 236.82 8.47266C236.195 7.86328 235.379 7.55859 234.371 7.55859C233.363 7.55859 232.531 7.86719 231.875 8.48438C231.219 9.10156 230.828 9.91406 230.703 10.9219ZM242.938 18V5.90625H244.789L244.93 8.01562C245.172 7.35938 245.605 6.82422 246.23 6.41016C246.863 5.99609 247.637 5.78906 248.551 5.78906V7.85156C247.559 7.85156 246.742 8.14453 246.102 8.73047C245.398 9.37109 245.031 10.3242 245 11.5898V18H242.938ZM249.898 14.8594C249.898 12.9531 251.027 11.7852 253.285 11.3555L256.977 10.6523V10.0547C256.977 8.39062 256.234 7.55859 254.75 7.55859C254.016 7.55859 253.418 7.75391 252.957 8.14453C252.504 8.53516 252.277 9.07813 252.277 9.77344H250.238C250.27 8.60156 250.699 7.61719 251.527 6.82031C252.363 6.03125 253.438 5.63672 254.75 5.63672C256.109 5.63672 257.168 6.01562 257.926 6.77344C258.691 7.52344 259.074 8.59375 259.074 9.98438V18H257.199L257.105 16.3477C256.77 16.9414 256.281 17.4102 255.641 17.7539C255 18.0977 254.262 18.2695 253.426 18.2695C252.355 18.2695 251.5 17.9609 250.859 17.3438C250.219 16.7266 249.898 15.8984 249.898 14.8594ZM251.984 14.8359C251.984 15.3125 252.145 15.6836 252.465 15.9492C252.785 16.2148 253.242 16.3477 253.836 16.3477C254.891 16.3477 255.707 15.9453 256.285 15.1406C256.746 14.5078 256.977 13.7656 256.977 12.9141V12.457L253.672 13.1719C253.109 13.3125 252.688 13.5078 252.406 13.7578C252.125 14.0078 251.984 14.3672 251.984 14.8359ZM262.648 23.1562V5.90625H264.523L264.617 7.67578C265.539 6.31641 266.922 5.63672 268.766 5.63672C270.445 5.63672 271.805 6.23828 272.844 7.44141C273.883 8.62891 274.406 10.1328 274.414 11.9531C274.414 13.7578 273.883 15.2617 272.82 16.4648C271.781 17.668 270.422 18.2695 268.742 18.2695C267.828 18.2695 267.023 18.0977 266.328 17.7539C265.633 17.4023 265.102 16.9336 264.734 16.3477V23.1562H262.648ZM264.688 11.9531C264.688 13.2656 265.055 14.3125 265.789 15.0938C266.539 15.8906 267.422 16.293 268.438 16.3008C269.555 16.3008 270.473 15.8984 271.191 15.0938C271.91 14.2812 272.27 13.2344 272.27 11.9531C272.27 10.6562 271.922 9.60547 271.227 8.80078C270.531 7.98828 269.609 7.58203 268.461 7.58203C267.422 7.58203 266.531 7.97656 265.789 8.76562C265.055 9.54688 264.688 10.5703 264.688 11.8359V11.9531ZM276.793 2.17969C276.793 1.78125 276.93 1.44922 277.203 1.18359C277.477 0.910156 277.812 0.773438 278.211 0.773438C278.609 0.773438 278.949 0.910156 279.23 1.18359C279.512 1.44922 279.652 1.78125 279.652 2.17969C279.652 2.5625 279.512 2.89062 279.23 3.16406C278.949 3.4375 278.609 3.57422 278.211 3.57422C277.812 3.57422 277.477 3.44141 277.203 3.17578C276.93 2.90234 276.793 2.57031 276.793 2.17969ZM277.18 18V5.90625H279.242V18H277.18ZM282.078 14.332H284.188C284.203 15.6758 284.988 16.3477 286.543 16.3477C287.199 16.3477 287.711 16.1992 288.078 15.9023C288.445 15.6055 288.629 15.207 288.629 14.707C288.629 14.1914 288.453 13.7969 288.102 13.5234C287.75 13.2422 287.086 12.9922 286.109 12.7734C284.797 12.4688 283.848 12.0508 283.262 11.5195C282.676 10.9883 282.383 10.2539 282.383 9.31641C282.383 8.29297 282.738 7.42578 283.449 6.71484C284.168 5.99609 285.152 5.63672 286.402 5.63672C287.551 5.63672 288.492 5.98828 289.227 6.69141C289.961 7.37891 290.344 8.30078 290.375 9.45703H288.266C288.25 8.19141 287.609 7.55859 286.344 7.55859C285.75 7.55859 285.293 7.70703 284.973 8.00391C284.66 8.30078 284.504 8.69531 284.504 9.1875C284.504 9.66406 284.66 10.0234 284.973 10.2656C285.285 10.5078 285.887 10.7344 286.777 10.9453C288.215 11.2813 289.234 11.7266 289.836 12.2812C290.437 12.8281 290.738 13.5898 290.738 14.5664C290.738 15.6992 290.344 16.6016 289.555 17.2734C288.773 17.9375 287.754 18.2695 286.496 18.2695C285.137 18.2695 284.066 17.918 283.285 17.2148C282.512 16.5039 282.109 15.543 282.078 14.332ZM291.945 7.82812V5.90625H294.207L294.23 2.88281H296.316L296.293 5.90625H299.387V7.82812H296.27L296.223 14.3086C296.223 15.0273 296.344 15.5352 296.586 15.832C296.836 16.1289 297.289 16.2773 297.945 16.2773C298.477 16.2773 298.957 16.2031 299.387 16.0547V17.9062C298.957 18.0781 298.391 18.1641 297.688 18.1641C297.656 18.1641 297.625 18.1641 297.594 18.1641C296.422 18.1641 295.555 17.8828 294.992 17.3203C294.438 16.7734 294.16 15.9258 294.16 14.7773C294.16 14.7461 294.16 14.7148 294.16 14.6836L294.207 7.82812H291.945ZM301.062 14.332H303.172C303.188 15.6758 303.973 16.3477 305.527 16.3477C306.184 16.3477 306.695 16.1992 307.062 15.9023C307.43 15.6055 307.613 15.207 307.613 14.707C307.613 14.1914 307.438 13.7969 307.086 13.5234C306.734 13.2422 306.07 12.9922 305.094 12.7734C303.781 12.4688 302.832 12.0508 302.246 11.5195C301.66 10.9883 301.367 10.2539 301.367 9.31641C301.367 8.29297 301.723 7.42578 302.434 6.71484C303.152 5.99609 304.137 5.63672 305.387 5.63672C306.535 5.63672 307.477 5.98828 308.211 6.69141C308.945 7.37891 309.328 8.30078 309.359 9.45703H307.25C307.234 8.19141 306.594 7.55859 305.328 7.55859C304.734 7.55859 304.277 7.70703 303.957 8.00391C303.645 8.30078 303.488 8.69531 303.488 9.1875C303.488 9.66406 303.645 10.0234 303.957 10.2656C304.27 10.5078 304.871 10.7344 305.762 10.9453C307.199 11.2813 308.219 11.7266 308.82 12.2812C309.422 12.8281 309.723 13.5898 309.723 14.5664C309.723 15.6992 309.328 16.6016 308.539 17.2734C307.758 17.9375 306.738 18.2695 305.48 18.2695C304.121 18.2695 303.051 17.918 302.27 17.2148C301.496 16.5039 301.094 15.543 301.062 14.332ZM316.508 11.9766C316.508 10.1563 317.059 8.64453 318.16 7.44141C319.293 6.23828 320.699 5.63672 322.379 5.63672C323.754 5.63672 324.922 5.99219 325.883 6.70312C326.844 7.40625 327.469 8.39453 327.758 9.66797H325.695C325.453 8.99609 325.039 8.47656 324.453 8.10938C323.875 7.74219 323.191 7.55859 322.402 7.55859C321.316 7.55859 320.414 7.97656 319.695 8.8125C318.992 9.66406 318.641 10.7188 318.641 11.9766C318.641 13.2109 319 14.25 319.719 15.0938C320.438 15.9219 321.352 16.3398 322.461 16.3477C323.227 16.3477 323.902 16.1563 324.488 15.7734C325.082 15.3828 325.484 14.8672 325.695 14.2266H327.781C327.461 15.5078 326.82 16.5039 325.859 17.2148C324.906 17.918 323.746 18.2695 322.379 18.2695C320.668 18.2695 319.262 17.6758 318.16 16.4883C317.059 15.3164 316.508 13.8125 316.508 11.9766ZM329.82 14.8594C329.82 12.9531 330.949 11.7852 333.207 11.3555L336.898 10.6523V10.0547C336.898 8.39062 336.156 7.55859 334.672 7.55859C333.938 7.55859 333.34 7.75391 332.879 8.14453C332.426 8.53516 332.199 9.07813 332.199 9.77344H330.16C330.191 8.60156 330.621 7.61719 331.449 6.82031C332.285 6.03125 333.359 5.63672 334.672 5.63672C336.031 5.63672 337.09 6.01562 337.848 6.77344C338.613 7.52344 338.996 8.59375 338.996 9.98438V18H337.121L337.027 16.3477C336.691 16.9414 336.203 17.4102 335.562 17.7539C334.922 18.0977 334.184 18.2695 333.348 18.2695C332.277 18.2695 331.422 17.9609 330.781 17.3438C330.141 16.7266 329.82 15.8984 329.82 14.8594ZM331.906 14.8359C331.906 15.3125 332.066 15.6836 332.387 15.9492C332.707 16.2148 333.164 16.3477 333.758 16.3477C334.812 16.3477 335.629 15.9453 336.207 15.1406C336.668 14.5078 336.898 13.7656 336.898 12.9141V12.457L333.594 13.1719C333.031 13.3125 332.609 13.5078 332.328 13.7578C332.047 14.0078 331.906 14.3672 331.906 14.8359ZM342.406 18V5.90625H344.246L344.375 7.55859C345.039 6.27734 346.172 5.63672 347.773 5.63672C349.023 5.63672 349.992 6.04688 350.68 6.86719C351.367 7.67969 351.711 8.78125 351.711 10.1719V18H349.625V10.5117C349.625 9.59766 349.418 8.89453 349.004 8.40234C348.59 7.90234 348.012 7.65234 347.27 7.65234C346.441 7.65234 345.766 8 345.242 8.69531C344.727 9.39062 344.469 10.332 344.469 11.5195V18H342.406ZM360.125 18V0.480469H362.188V7.41797C362.445 6.88672 362.863 6.45703 363.441 6.12891C364.027 5.80078 364.711 5.63672 365.492 5.63672C366.742 5.63672 367.711 6.04688 368.398 6.86719C369.086 7.67969 369.43 8.78125 369.43 10.1719V18H367.344V10.5117C367.344 9.59766 367.137 8.89453 366.723 8.40234C366.309 7.90234 365.73 7.65234 364.988 7.65234C364.16 7.65234 363.484 8 362.961 8.69531C362.445 9.39062 362.188 10.332 362.188 11.5195V18H360.125ZM371.914 11.9766C371.914 10.1172 372.449 8.60547 373.52 7.44141C374.605 6.23828 376.012 5.63672 377.738 5.63672C379.418 5.63672 380.754 6.17578 381.746 7.25391C382.738 8.32422 383.234 9.83594 383.234 11.7891V12.7734H374.047C374.125 13.875 374.504 14.7461 375.184 15.3867C375.863 16.0273 376.73 16.3477 377.785 16.3477C379.465 16.3477 380.555 15.6914 381.055 14.3789H383.117C382.734 15.6133 382.082 16.5703 381.16 17.25C380.238 17.9297 379.098 18.2695 377.738 18.2695C376.012 18.2695 374.613 17.6914 373.543 16.5352C372.457 15.3633 371.914 13.8438 371.914 11.9766ZM374.07 10.9219H381.148C381.133 9.89844 380.812 9.08203 380.188 8.47266C379.563 7.86328 378.746 7.55859 377.738 7.55859C376.73 7.55859 375.898 7.86719 375.242 8.48438C374.586 9.10156 374.195 9.91406 374.07 10.9219ZM386.234 18V0.480469H388.297V18H386.234ZM392.188 23.1562V5.90625H394.062L394.156 7.67578C395.078 6.31641 396.461 5.63672 398.305 5.63672C399.984 5.63672 401.344 6.23828 402.383 7.44141C403.422 8.62891 403.945 10.1328 403.953 11.9531C403.953 13.7578 403.422 15.2617 402.359 16.4648C401.32 17.668 399.961 18.2695 398.281 18.2695C397.367 18.2695 396.562 18.0977 395.867 17.7539C395.172 17.4023 394.641 16.9336 394.273 16.3477V23.1562H392.188ZM394.227 11.9531C394.227 13.2656 394.594 14.3125 395.328 15.0938C396.078 15.8906 396.961 16.293 397.977 16.3008C399.094 16.3008 400.012 15.8984 400.73 15.0938C401.449 14.2812 401.809 13.2344 401.809 11.9531C401.809 10.6562 401.461 9.60547 400.766 8.80078C400.07 7.98828 399.148 7.58203 398 7.58203C396.961 7.58203 396.07 7.97656 395.328 8.76562C394.594 9.54688 394.227 10.5703 394.227 11.8359V11.9531ZM410.152 5.90625H412.355L415.555 14.5898L415.789 15.5039L416.035 14.5898L419.223 5.90625H421.449L414.852 23.1562H412.672L414.688 17.8359L410.152 5.90625ZM424.168 16.4883C423.035 15.3008 422.469 13.7891 422.469 11.9531C422.469 10.1094 423.035 8.59766 424.168 7.41797C425.324 6.23047 426.805 5.63672 428.609 5.63672C430.398 5.63672 431.863 6.23047 433.004 7.41797C434.152 8.58984 434.727 10.1016 434.727 11.9531C434.727 13.8047 434.152 15.3164 433.004 16.4883C431.871 17.6758 430.406 18.2695 428.609 18.2695C426.805 18.2695 425.324 17.6758 424.168 16.4883ZM424.602 11.9531C424.602 13.2188 424.969 14.2695 425.703 15.1055C426.437 15.9336 427.414 16.3477 428.633 16.3477C429.82 16.3477 430.773 15.9297 431.492 15.0938C432.227 14.2656 432.594 13.2188 432.594 11.9531C432.594 10.6562 432.227 9.60938 431.492 8.8125C430.773 7.97656 429.82 7.55859 428.633 7.55859C427.414 7.55859 426.437 7.97656 425.703 8.8125C424.969 9.60938 424.602 10.6562 424.602 11.9531ZM437.246 13.7227V5.90625H439.309V13.3945C439.309 14.3398 439.508 15.0586 439.906 15.5508C440.312 16.0352 440.883 16.2773 441.617 16.2773C442.43 16.2773 443.094 15.9492 443.609 15.293C444.125 14.6367 444.383 13.7461 444.383 12.6211V5.90625H446.445V18H444.594L444.477 16.3477C443.867 17.6289 442.754 18.2695 441.137 18.2695C439.887 18.2695 438.926 17.8672 438.254 17.0625C437.582 16.25 437.246 15.1367 437.246 13.7227ZM2.38672 50.9062H4.58984L7.10938 59.3555L7.35547 60.457L7.61328 59.3555L10.332 50.9062H12.1016L14.8203 59.3555L15.0781 60.457L15.3242 59.3555L17.8438 50.9062H20.0469L16.2031 63H14.1172L11.1875 54.3633L8.23438 63H6.21875L2.38672 50.9062ZM21.9336 47.1797C21.9336 46.7812 22.0703 46.4492 22.3438 46.1836C22.6172 45.9102 22.9531 45.7734 23.3516 45.7734C23.75 45.7734 24.0898 45.9102 24.3711 46.1836C24.6523 46.4492 24.793 46.7812 24.793 47.1797C24.793 47.5625 24.6523 47.8906 24.3711 48.1641C24.0898 48.4375 23.75 48.5742 23.3516 48.5742C22.9531 48.5742 22.6172 48.4414 22.3438 48.1758C22.0703 47.9023 21.9336 47.5703 21.9336 47.1797ZM22.3203 63V50.9062H24.3828V63H22.3203ZM26.4922 52.8281V50.9062H28.7539L28.7773 47.8828H30.8633L30.8398 50.9062H33.9336V52.8281H30.8164L30.7695 59.3086C30.7695 60.0273 30.8906 60.5352 31.1328 60.832C31.3828 61.1289 31.8359 61.2773 32.4922 61.2773C33.0234 61.2773 33.5039 61.2031 33.9336 61.0547V62.9062C33.5039 63.0781 32.9375 63.1641 32.2344 63.1641C32.2031 63.1641 32.1719 63.1641 32.1406 63.1641C30.9688 63.1641 30.1016 62.8828 29.5391 62.3203C28.9844 61.7734 28.707 60.9258 28.707 59.7773C28.707 59.7461 28.707 59.7148 28.707 59.6836L28.7539 52.8281H26.4922ZM36.5 63V45.4805H38.5625V52.418C38.8203 51.8867 39.2383 51.457 39.8164 51.1289C40.4023 50.8008 41.0859 50.6367 41.8672 50.6367C43.1172 50.6367 44.0859 51.0469 44.7734 51.8672C45.4609 52.6797 45.8047 53.7812 45.8047 55.1719V63H43.7188V55.5117C43.7188 54.5977 43.5117 53.8945 43.0977 53.4023C42.6836 52.9023 42.1055 52.6523 41.3633 52.6523C40.5352 52.6523 39.8594 53 39.3359 53.6953C38.8203 54.3906 38.5625 55.332 38.5625 56.5195V63H36.5ZM53.4922 59.8594C53.4922 57.9531 54.6211 56.7852 56.8789 56.3555L60.5703 55.6523V55.0547C60.5703 53.3906 59.8281 52.5586 58.3438 52.5586C57.6094 52.5586 57.0117 52.7539 56.5508 53.1445C56.0977 53.5352 55.8711 54.0781 55.8711 54.7734H53.832C53.8633 53.6016 54.293 52.6172 55.1211 51.8203C55.957 51.0313 57.0312 50.6367 58.3438 50.6367C59.7031 50.6367 60.7617 51.0156 61.5195 51.7734C62.2852 52.5234 62.668 53.5937 62.668 54.9844V63H60.793L60.6992 61.3477C60.3633 61.9414 59.875 62.4102 59.2344 62.7539C58.5937 63.0977 57.8555 63.2695 57.0195 63.2695C55.9492 63.2695 55.0938 62.9609 54.4531 62.3438C53.8125 61.7266 53.4922 60.8984 53.4922 59.8594ZM55.5781 59.8359C55.5781 60.3125 55.7383 60.6836 56.0586 60.9492C56.3789 61.2148 56.8359 61.3477 57.4297 61.3477C58.4844 61.3477 59.3008 60.9453 59.8789 60.1406C60.3398 59.5078 60.5703 58.7656 60.5703 57.9141V57.457L57.2656 58.1719C56.7031 58.3125 56.2812 58.5078 56 58.7578C55.7188 59.0078 55.5781 59.3672 55.5781 59.8359ZM71.1641 63V50.9062H73.0156L73.1562 53.0156C73.3984 52.3594 73.832 51.8242 74.457 51.4102C75.0898 50.9961 75.8633 50.7891 76.7773 50.7891V52.8516C75.7852 52.8516 74.9687 53.1445 74.3281 53.7305C73.625 54.3711 73.2578 55.3242 73.2266 56.5898V63H71.1641ZM78.125 59.8594C78.125 57.9531 79.2539 56.7852 81.5117 56.3555L85.2031 55.6523V55.0547C85.2031 53.3906 84.4609 52.5586 82.9766 52.5586C82.2422 52.5586 81.6445 52.7539 81.1836 53.1445C80.7305 53.5352 80.5039 54.0781 80.5039 54.7734H78.4648C78.4961 53.6016 78.9258 52.6172 79.7539 51.8203C80.5898 51.0313 81.6641 50.6367 82.9766 50.6367C84.3359 50.6367 85.3945 51.0156 86.1523 51.7734C86.918 52.5234 87.3008 53.5937 87.3008 54.9844V63H85.4258L85.332 61.3477C84.9961 61.9414 84.5078 62.4102 83.8672 62.7539C83.2266 63.0977 82.4883 63.2695 81.6523 63.2695C80.582 63.2695 79.7266 62.9609 79.0859 62.3438C78.4453 61.7266 78.125 60.8984 78.125 59.8594ZM80.2109 59.8359C80.2109 60.3125 80.3711 60.6836 80.6914 60.9492C81.0117 61.2148 81.4688 61.3477 82.0625 61.3477C83.1172 61.3477 83.9336 60.9453 84.5117 60.1406C84.9727 59.5078 85.2031 58.7656 85.2031 57.9141V57.457L81.8984 58.1719C81.3359 58.3125 80.9141 58.5078 80.6328 58.7578C80.3516 59.0078 80.2109 59.3672 80.2109 59.8359ZM90.7109 63V50.9062H92.5508L92.6797 52.5586C93.3437 51.2773 94.4766 50.6367 96.0781 50.6367C97.3281 50.6367 98.2969 51.0469 98.9844 51.8672C99.6719 52.6797 100.016 53.7812 100.016 55.1719V63H97.9297V55.5117C97.9297 54.5977 97.7227 53.8945 97.3086 53.4023C96.8945 52.9023 96.3164 52.6523 95.5742 52.6523C94.7461 52.6523 94.0703 53 93.5469 53.6953C93.0312 54.3906 92.7734 55.332 92.7734 56.5195V63H90.7109ZM102.547 59.9531C102.547 58.8984 102.961 58.0742 103.789 57.4805C103.273 56.7773 103.02 55.9453 103.027 54.9844C103.027 53.7188 103.449 52.6797 104.293 51.8672C105.16 51.0547 106.289 50.6445 107.68 50.6367C108.258 50.6367 108.836 50.7266 109.414 50.9062H113.797V52.7227H111.688C112.086 53.3789 112.285 54.1328 112.285 54.9844C112.285 56.2187 111.863 57.2422 111.02 58.0547C110.191 58.8672 109.078 59.2773 107.68 59.2852C106.703 59.2852 105.832 59.0664 105.066 58.6289C104.746 58.9492 104.586 59.3516 104.586 59.8359C104.586 60.2188 104.727 60.5195 105.008 60.7383C105.289 60.9492 105.66 61.0547 106.121 61.0547H109.332C110.582 61.0547 111.531 61.3398 112.18 61.9102C112.828 62.4805 113.152 63.293 113.152 64.3477C113.152 65.6289 112.699 66.6289 111.793 67.3477C110.895 68.0664 109.668 68.4258 108.113 68.4258C106.418 68.4258 105.113 68.0977 104.199 67.4414C103.285 66.7852 102.828 65.8555 102.828 64.6523C102.828 63.6758 103.27 62.9492 104.152 62.4727C103.691 62.2305 103.309 61.8867 103.004 61.4414C102.699 60.9961 102.547 60.5 102.547 59.9531ZM104.867 64.582C104.867 65.2383 105.152 65.7383 105.723 66.082C106.293 66.4258 107.09 66.5977 108.113 66.5977C109.074 66.5977 109.812 66.4141 110.328 66.0469C110.852 65.6797 111.113 65.1445 111.113 64.4414C111.113 63.4023 110.387 62.8828 108.934 62.8828H106.625C106.078 62.9141 105.648 63.0742 105.336 63.3633C105.023 63.6523 104.867 64.0586 104.867 64.582ZM105.066 54.9844C105.066 55.7031 105.305 56.2969 105.781 56.7656C106.266 57.2266 106.891 57.457 107.656 57.457C108.422 57.457 109.043 57.2266 109.52 56.7656C110.004 56.2969 110.246 55.7031 110.246 54.9844C110.246 54.25 110.004 53.6484 109.52 53.1797C109.043 52.7031 108.422 52.4648 107.656 52.4648C106.891 52.4648 106.266 52.7031 105.781 53.1797C105.305 53.6484 105.066 54.25 105.066 54.9844ZM114.594 56.9766C114.594 55.1172 115.129 53.6055 116.199 52.4414C117.285 51.2383 118.691 50.6367 120.418 50.6367C122.098 50.6367 123.434 51.1758 124.426 52.2539C125.418 53.3242 125.914 54.8359 125.914 56.7891V57.7734H116.727C116.805 58.875 117.184 59.7461 117.863 60.3867C118.543 61.0273 119.41 61.3477 120.465 61.3477C122.145 61.3477 123.234 60.6914 123.734 59.3789H125.797C125.414 60.6133 124.762 61.5703 123.84 62.25C122.918 62.9297 121.777 63.2695 120.418 63.2695C118.691 63.2695 117.293 62.6914 116.223 61.5352C115.137 60.3633 114.594 58.8438 114.594 56.9766ZM116.75 55.9219H123.828C123.813 54.8984 123.492 54.082 122.867 53.4727C122.242 52.8633 121.426 52.5586 120.418 52.5586C119.41 52.5586 118.578 52.8672 117.922 53.4844C117.266 54.1016 116.875 54.9141 116.75 55.9219ZM134.504 61.4883C133.371 60.3008 132.805 58.7891 132.805 56.9531C132.805 55.1094 133.371 53.5977 134.504 52.418C135.66 51.2305 137.141 50.6367 138.945 50.6367C140.734 50.6367 142.199 51.2305 143.34 52.418C144.488 53.5898 145.062 55.1016 145.062 56.9531C145.062 58.8047 144.488 60.3164 143.34 61.4883C142.207 62.6758 140.742 63.2695 138.945 63.2695C137.141 63.2695 135.66 62.6758 134.504 61.4883ZM134.938 56.9531C134.938 58.2188 135.305 59.2695 136.039 60.1055C136.773 60.9336 137.75 61.3477 138.969 61.3477C140.156 61.3477 141.109 60.9297 141.828 60.0938C142.563 59.2656 142.93 58.2188 142.93 56.9531C142.93 55.6562 142.563 54.6094 141.828 53.8125C141.109 52.9766 140.156 52.5586 138.969 52.5586C137.75 52.5586 136.773 52.9766 136.039 53.8125C135.305 54.6094 134.938 55.6562 134.938 56.9531ZM146.27 52.8047V50.9062H148.449V49.0547C148.449 47.8516 148.766 46.9219 149.398 46.2656C150.031 45.6016 150.922 45.2695 152.07 45.2695C152.711 45.2695 153.258 45.3633 153.711 45.5508V47.4258C153.25 47.2305 152.762 47.1328 152.246 47.1328C151.113 47.1328 150.543 47.7891 150.535 49.1016V50.9062H153.535V52.8047H150.535V63H148.449V52.8047H146.27ZM160.355 47.1797C160.355 46.7812 160.492 46.4492 160.766 46.1836C161.039 45.9102 161.375 45.7734 161.773 45.7734C162.172 45.7734 162.512 45.9102 162.793 46.1836C163.074 46.4492 163.215 46.7812 163.215 47.1797C163.215 47.5625 163.074 47.8906 162.793 48.1641C162.512 48.4375 162.172 48.5742 161.773 48.5742C161.375 48.5742 161.039 48.4414 160.766 48.1758C160.492 47.9023 160.355 47.5703 160.355 47.1797ZM160.742 63V50.9062H162.805V63H160.742ZM165.641 59.332H167.75C167.766 60.6758 168.551 61.3477 170.105 61.3477C170.762 61.3477 171.273 61.1992 171.641 60.9023C172.008 60.6055 172.191 60.207 172.191 59.707C172.191 59.1914 172.016 58.7969 171.664 58.5234C171.312 58.2422 170.648 57.9922 169.672 57.7734C168.359 57.4688 167.41 57.0508 166.824 56.5195C166.238 55.9883 165.945 55.2539 165.945 54.3164C165.945 53.293 166.301 52.4258 167.012 51.7148C167.73 50.9961 168.715 50.6367 169.965 50.6367C171.113 50.6367 172.055 50.9883 172.789 51.6914C173.523 52.3789 173.906 53.3008 173.938 54.457H171.828C171.813 53.1914 171.172 52.5586 169.906 52.5586C169.313 52.5586 168.855 52.707 168.535 53.0039C168.223 53.3008 168.066 53.6953 168.066 54.1875C168.066 54.6641 168.223 55.0234 168.535 55.2656C168.848 55.5078 169.449 55.7344 170.34 55.9453C171.777 56.2813 172.797 56.7266 173.398 57.2812C174 57.8281 174.301 58.5898 174.301 59.5664C174.301 60.6992 173.906 61.6016 173.117 62.2734C172.336 62.9375 171.316 63.2695 170.059 63.2695C168.699 63.2695 167.629 62.918 166.848 62.2148C166.074 61.5039 165.672 60.543 165.641 59.332ZM176.234 59.332H178.344C178.359 60.6758 179.145 61.3477 180.699 61.3477C181.355 61.3477 181.867 61.1992 182.234 60.9023C182.602 60.6055 182.785 60.207 182.785 59.707C182.785 59.1914 182.609 58.7969 182.258 58.5234C181.906 58.2422 181.242 57.9922 180.266 57.7734C178.953 57.4688 178.004 57.0508 177.418 56.5195C176.832 55.9883 176.539 55.2539 176.539 54.3164C176.539 53.293 176.895 52.4258 177.605 51.7148C178.324 50.9961 179.309 50.6367 180.559 50.6367C181.707 50.6367 182.648 50.9883 183.383 51.6914C184.117 52.3789 184.5 53.3008 184.531 54.457H182.422C182.406 53.1914 181.766 52.5586 180.5 52.5586C179.906 52.5586 179.449 52.707 179.129 53.0039C178.816 53.3008 178.66 53.6953 178.66 54.1875C178.66 54.6641 178.816 55.0234 179.129 55.2656C179.441 55.5078 180.043 55.7344 180.934 55.9453C182.371 56.2813 183.391 56.7266 183.992 57.2812C184.594 57.8281 184.895 58.5898 184.895 59.5664C184.895 60.6992 184.5 61.6016 183.711 62.2734C182.93 62.9375 181.91 63.2695 180.652 63.2695C179.293 63.2695 178.223 62.918 177.441 62.2148C176.668 61.5039 176.266 60.543 176.234 59.332ZM187.543 58.7227V50.9062H189.605V58.3945C189.605 59.3398 189.805 60.0586 190.203 60.5508C190.609 61.0352 191.18 61.2773 191.914 61.2773C192.727 61.2773 193.391 60.9492 193.906 60.293C194.422 59.6367 194.68 58.7461 194.68 57.6211V50.9062H196.742V63H194.891L194.773 61.3477C194.164 62.6289 193.051 63.2695 191.434 63.2695C190.184 63.2695 189.223 62.8672 188.551 62.0625C187.879 61.25 187.543 60.1367 187.543 58.7227ZM199.414 56.9766C199.414 55.1172 199.949 53.6055 201.02 52.4414C202.105 51.2383 203.512 50.6367 205.238 50.6367C206.918 50.6367 208.254 51.1758 209.246 52.2539C210.238 53.3242 210.734 54.8359 210.734 56.7891V57.7734H201.547C201.625 58.875 202.004 59.7461 202.684 60.3867C203.363 61.0273 204.23 61.3477 205.285 61.3477C206.965 61.3477 208.055 60.6914 208.555 59.3789H210.617C210.234 60.6133 209.582 61.5703 208.66 62.25C207.738 62.9297 206.598 63.2695 205.238 63.2695C203.512 63.2695 202.113 62.6914 201.043 61.5352C199.957 60.3633 199.414 58.8438 199.414 56.9766ZM201.57 55.9219H208.648C208.633 54.8984 208.312 54.082 207.688 53.4727C207.063 52.8633 206.246 52.5586 205.238 52.5586C204.23 52.5586 203.398 52.8672 202.742 53.4844C202.086 54.1016 201.695 54.9141 201.57 55.9219ZM212.773 59.332H214.883C214.898 60.6758 215.684 61.3477 217.238 61.3477C217.895 61.3477 218.406 61.1992 218.773 60.9023C219.141 60.6055 219.324 60.207 219.324 59.707C219.324 59.1914 219.148 58.7969 218.797 58.5234C218.445 58.2422 217.781 57.9922 216.805 57.7734C215.492 57.4688 214.543 57.0508 213.957 56.5195C213.371 55.9883 213.078 55.2539 213.078 54.3164C213.078 53.293 213.434 52.4258 214.145 51.7148C214.863 50.9961 215.848 50.6367 217.098 50.6367C218.246 50.6367 219.187 50.9883 219.922 51.6914C220.656 52.3789 221.039 53.3008 221.07 54.457H218.961C218.945 53.1914 218.305 52.5586 217.039 52.5586C216.445 52.5586 215.988 52.707 215.668 53.0039C215.355 53.3008 215.199 53.6953 215.199 54.1875C215.199 54.6641 215.355 55.0234 215.668 55.2656C215.98 55.5078 216.582 55.7344 217.473 55.9453C218.91 56.2813 219.93 56.7266 220.531 57.2812C221.133 57.8281 221.434 58.5898 221.434 59.5664C221.434 60.6992 221.039 61.6016 220.25 62.2734C219.469 62.9375 218.449 63.2695 217.191 63.2695C215.832 63.2695 214.762 62.918 213.98 62.2148C213.207 61.5039 212.805 60.543 212.773 59.332ZM228.887 47.1797C228.887 46.7812 229.023 46.4492 229.297 46.1836C229.57 45.9102 229.906 45.7734 230.305 45.7734C230.703 45.7734 231.043 45.9102 231.324 46.1836C231.605 46.4492 231.746 46.7812 231.746 47.1797C231.746 47.5625 231.605 47.8906 231.324 48.1641C231.043 48.4375 230.703 48.5742 230.305 48.5742C229.906 48.5742 229.57 48.4414 229.297 48.1758C229.023 47.9023 228.887 47.5703 228.887 47.1797ZM229.273 63V50.9062H231.336V63H229.273ZM235.062 63V50.9062H236.902L237.031 52.5586C237.695 51.2773 238.828 50.6367 240.43 50.6367C241.68 50.6367 242.648 51.0469 243.336 51.8672C244.023 52.6797 244.367 53.7812 244.367 55.1719V63H242.281V55.5117C242.281 54.5977 242.074 53.8945 241.66 53.4023C241.246 52.9023 240.668 52.6523 239.926 52.6523C239.098 52.6523 238.422 53 237.898 53.6953C237.383 54.3906 237.125 55.332 237.125 56.5195V63H235.062ZM246.852 56.9766C246.852 55.1563 247.402 53.6445 248.504 52.4414C249.637 51.2383 251.043 50.6367 252.723 50.6367C254.098 50.6367 255.266 50.9922 256.227 51.7031C257.188 52.4062 257.812 53.3945 258.102 54.668H256.039C255.797 53.9961 255.383 53.4766 254.797 53.1094C254.219 52.7422 253.535 52.5586 252.746 52.5586C251.66 52.5586 250.758 52.9766 250.039 53.8125C249.336 54.6641 248.984 55.7188 248.984 56.9766C248.984 58.2109 249.344 59.25 250.062 60.0938C250.781 60.9219 251.695 61.3398 252.805 61.3477C253.57 61.3477 254.246 61.1563 254.832 60.7734C255.426 60.3828 255.828 59.8672 256.039 59.2266H258.125C257.805 60.5078 257.164 61.5039 256.203 62.2148C255.25 62.918 254.09 63.2695 252.723 63.2695C251.012 63.2695 249.605 62.6758 248.504 61.4883C247.402 60.3164 246.852 58.8125 246.852 56.9766ZM260.961 63V45.4805H263.023V63H260.961ZM266.574 58.7227V50.9062H268.637V58.3945C268.637 59.3398 268.836 60.0586 269.234 60.5508C269.641 61.0352 270.211 61.2773 270.945 61.2773C271.758 61.2773 272.422 60.9492 272.938 60.293C273.453 59.6367 273.711 58.7461 273.711 57.6211V50.9062H275.773V63H273.922L273.805 61.3477C273.195 62.6289 272.082 63.2695 270.465 63.2695C269.215 63.2695 268.254 62.8672 267.582 62.0625C266.91 61.25 266.574 60.1367 266.574 58.7227ZM278.445 56.9531C278.445 55.1641 278.965 53.6602 280.004 52.4414C281.059 51.2383 282.426 50.6367 284.105 50.6367C285.949 50.6367 287.293 51.2773 288.137 52.5586V45.4805H290.199V63H288.359L288.23 61.2188C287.301 62.5781 285.918 63.2617 284.082 63.2695C282.402 63.2695 281.043 62.6758 280.004 61.4883C278.965 60.2695 278.445 58.7578 278.445 56.9531ZM280.578 56.9531C280.578 58.25 280.926 59.3047 281.621 60.1172C282.316 60.9219 283.242 61.3242 284.398 61.3242C285.422 61.3242 286.301 60.9297 287.035 60.1406C287.785 59.3438 288.16 58.3203 288.16 57.0703V56.9531C288.16 55.6562 287.785 54.6094 287.035 53.8125C286.285 53.0078 285.414 52.6055 284.422 52.6055C283.305 52.6055 282.383 53.0156 281.656 53.8359C280.937 54.6328 280.578 55.6719 280.578 56.9531ZM293.527 47.1797C293.527 46.7812 293.664 46.4492 293.938 46.1836C294.211 45.9102 294.547 45.7734 294.945 45.7734C295.344 45.7734 295.684 45.9102 295.965 46.1836C296.246 46.4492 296.387 46.7812 296.387 47.1797C296.387 47.5625 296.246 47.8906 295.965 48.1641C295.684 48.4375 295.344 48.5742 294.945 48.5742C294.547 48.5742 294.211 48.4414 293.938 48.1758C293.664 47.9023 293.527 47.5703 293.527 47.1797ZM293.914 63V50.9062H295.977V63H293.914ZM299.703 63V50.9062H301.543L301.672 52.5586C302.336 51.2773 303.469 50.6367 305.07 50.6367C306.32 50.6367 307.289 51.0469 307.977 51.8672C308.664 52.6797 309.008 53.7812 309.008 55.1719V63H306.922V55.5117C306.922 54.5977 306.715 53.8945 306.301 53.4023C305.887 52.9023 305.309 52.6523 304.566 52.6523C303.738 52.6523 303.062 53 302.539 53.6953C302.023 54.3906 301.766 55.332 301.766 56.5195V63H299.703ZM311.539 59.9531C311.539 58.8984 311.953 58.0742 312.781 57.4805C312.266 56.7773 312.012 55.9453 312.02 54.9844C312.02 53.7188 312.441 52.6797 313.285 51.8672C314.152 51.0547 315.281 50.6445 316.672 50.6367C317.25 50.6367 317.828 50.7266 318.406 50.9062H322.789V52.7227H320.68C321.078 53.3789 321.277 54.1328 321.277 54.9844C321.277 56.2187 320.855 57.2422 320.012 58.0547C319.184 58.8672 318.07 59.2773 316.672 59.2852C315.695 59.2852 314.824 59.0664 314.059 58.6289C313.738 58.9492 313.578 59.3516 313.578 59.8359C313.578 60.2188 313.719 60.5195 314 60.7383C314.281 60.9492 314.652 61.0547 315.113 61.0547H318.324C319.574 61.0547 320.523 61.3398 321.172 61.9102C321.82 62.4805 322.145 63.293 322.145 64.3477C322.145 65.6289 321.691 66.6289 320.785 67.3477C319.887 68.0664 318.66 68.4258 317.105 68.4258C315.41 68.4258 314.105 68.0977 313.191 67.4414C312.277 66.7852 311.82 65.8555 311.82 64.6523C311.82 63.6758 312.262 62.9492 313.145 62.4727C312.684 62.2305 312.301 61.8867 311.996 61.4414C311.691 60.9961 311.539 60.5 311.539 59.9531ZM313.859 64.582C313.859 65.2383 314.145 65.7383 314.715 66.082C315.285 66.4258 316.082 66.5977 317.105 66.5977C318.066 66.5977 318.805 66.4141 319.32 66.0469C319.844 65.6797 320.105 65.1445 320.105 64.4414C320.105 63.4023 319.379 62.8828 317.926 62.8828H315.617C315.07 62.9141 314.641 63.0742 314.328 63.3633C314.016 63.6523 313.859 64.0586 313.859 64.582ZM314.059 54.9844C314.059 55.7031 314.297 56.2969 314.773 56.7656C315.258 57.2266 315.883 57.457 316.648 57.457C317.414 57.457 318.035 57.2266 318.512 56.7656C318.996 56.2969 319.238 55.7031 319.238 54.9844C319.238 54.25 318.996 53.6484 318.512 53.1797C318.035 52.7031 317.414 52.4648 316.648 52.4648C315.883 52.4648 315.258 52.7031 314.773 53.1797C314.297 53.6484 314.059 54.25 314.059 54.9844ZM329.586 63V50.9062H331.438L331.578 53.0156C331.82 52.3594 332.254 51.8242 332.879 51.4102C333.512 50.9961 334.285 50.7891 335.199 50.7891V52.8516C334.207 52.8516 333.391 53.1445 332.75 53.7305C332.047 54.3711 331.68 55.3242 331.648 56.5898V63H329.586ZM336.383 56.9766C336.383 55.1172 336.918 53.6055 337.988 52.4414C339.074 51.2383 340.48 50.6367 342.207 50.6367C343.887 50.6367 345.223 51.1758 346.215 52.2539C347.207 53.3242 347.703 54.8359 347.703 56.7891V57.7734H338.516C338.594 58.875 338.973 59.7461 339.652 60.3867C340.332 61.0273 341.199 61.3477 342.254 61.3477C343.934 61.3477 345.023 60.6914 345.523 59.3789H347.586C347.203 60.6133 346.551 61.5703 345.629 62.25C344.707 62.9297 343.566 63.2695 342.207 63.2695C340.48 63.2695 339.082 62.6914 338.012 61.5352C336.926 60.3633 336.383 58.8438 336.383 56.9766ZM338.539 55.9219H345.617C345.602 54.8984 345.281 54.082 344.656 53.4727C344.031 52.8633 343.215 52.5586 342.207 52.5586C341.199 52.5586 340.367 52.8672 339.711 53.4844C339.055 54.1016 338.664 54.9141 338.539 55.9219ZM350.703 63V45.4805H352.766V63H350.703ZM355.766 59.8594C355.766 57.9531 356.895 56.7852 359.152 56.3555L362.844 55.6523V55.0547C362.844 53.3906 362.102 52.5586 360.617 52.5586C359.883 52.5586 359.285 52.7539 358.824 53.1445C358.371 53.5352 358.145 54.0781 358.145 54.7734H356.105C356.137 53.6016 356.566 52.6172 357.395 51.8203C358.23 51.0313 359.305 50.6367 360.617 50.6367C361.977 50.6367 363.035 51.0156 363.793 51.7734C364.559 52.5234 364.941 53.5937 364.941 54.9844V63H363.066L362.973 61.3477C362.637 61.9414 362.148 62.4102 361.508 62.7539C360.867 63.0977 360.129 63.2695 359.293 63.2695C358.223 63.2695 357.367 62.9609 356.727 62.3438C356.086 61.7266 355.766 60.8984 355.766 59.8594ZM357.852 59.8359C357.852 60.3125 358.012 60.6836 358.332 60.9492C358.652 61.2148 359.109 61.3477 359.703 61.3477C360.758 61.3477 361.574 60.9453 362.152 60.1406C362.613 59.5078 362.844 58.7656 362.844 57.9141V57.457L359.539 58.1719C358.977 58.3125 358.555 58.5078 358.273 58.7578C357.992 59.0078 357.852 59.3672 357.852 59.8359ZM366.734 52.8281V50.9062H368.996L369.02 47.8828H371.105L371.082 50.9062H374.176V52.8281H371.059L371.012 59.3086C371.012 60.0273 371.133 60.5352 371.375 60.832C371.625 61.1289 372.078 61.2773 372.734 61.2773C373.266 61.2773 373.746 61.2031 374.176 61.0547V62.9062C373.746 63.0781 373.18 63.1641 372.477 63.1641C372.445 63.1641 372.414 63.1641 372.383 63.1641C371.211 63.1641 370.344 62.8828 369.781 62.3203C369.227 61.7734 368.949 60.9258 368.949 59.7773C368.949 59.7461 368.949 59.7148 368.949 59.6836L368.996 52.8281H366.734ZM376.426 47.1797C376.426 46.7812 376.563 46.4492 376.836 46.1836C377.109 45.9102 377.445 45.7734 377.844 45.7734C378.242 45.7734 378.582 45.9102 378.863 46.1836C379.145 46.4492 379.285 46.7812 379.285 47.1797C379.285 47.5625 379.145 47.8906 378.863 48.1641C378.582 48.4375 378.242 48.5742 377.844 48.5742C377.445 48.5742 377.109 48.4414 376.836 48.1758C376.563 47.9023 376.426 47.5703 376.426 47.1797ZM376.812 63V50.9062H378.875V63H376.812ZM383.316 61.4883C382.184 60.3008 381.617 58.7891 381.617 56.9531C381.617 55.1094 382.184 53.5977 383.316 52.418C384.473 51.2305 385.953 50.6367 387.758 50.6367C389.547 50.6367 391.012 51.2305 392.152 52.418C393.301 53.5898 393.875 55.1016 393.875 56.9531C393.875 58.8047 393.301 60.3164 392.152 61.4883C391.02 62.6758 389.555 63.2695 387.758 63.2695C385.953 63.2695 384.473 62.6758 383.316 61.4883ZM383.75 56.9531C383.75 58.2188 384.117 59.2695 384.852 60.1055C385.586 60.9336 386.562 61.3477 387.781 61.3477C388.969 61.3477 389.922 60.9297 390.641 60.0938C391.375 59.2656 391.742 58.2188 391.742 56.9531C391.742 55.6562 391.375 54.6094 390.641 53.8125C389.922 52.9766 388.969 52.5586 387.781 52.5586C386.562 52.5586 385.586 52.9766 384.852 53.8125C384.117 54.6094 383.75 55.6562 383.75 56.9531ZM396.57 63V50.9062H398.41L398.539 52.5586C399.203 51.2773 400.336 50.6367 401.938 50.6367C403.188 50.6367 404.156 51.0469 404.844 51.8672C405.531 52.6797 405.875 53.7812 405.875 55.1719V63H403.789V55.5117C403.789 54.5977 403.582 53.8945 403.168 53.4023C402.754 52.9023 402.176 52.6523 401.434 52.6523C400.605 52.6523 399.93 53 399.406 53.6953C398.891 54.3906 398.633 55.332 398.633 56.5195V63H396.57ZM408.453 59.332H410.562C410.578 60.6758 411.363 61.3477 412.918 61.3477C413.574 61.3477 414.086 61.1992 414.453 60.9023C414.82 60.6055 415.004 60.207 415.004 59.707C415.004 59.1914 414.828 58.7969 414.477 58.5234C414.125 58.2422 413.461 57.9922 412.484 57.7734C411.172 57.4688 410.223 57.0508 409.637 56.5195C409.051 55.9883 408.758 55.2539 408.758 54.3164C408.758 53.293 409.113 52.4258 409.824 51.7148C410.543 50.9961 411.527 50.6367 412.777 50.6367C413.926 50.6367 414.867 50.9883 415.602 51.6914C416.336 52.3789 416.719 53.3008 416.75 54.457H414.641C414.625 53.1914 413.984 52.5586 412.719 52.5586C412.125 52.5586 411.668 52.707 411.348 53.0039C411.035 53.3008 410.879 53.6953 410.879 54.1875C410.879 54.6641 411.035 55.0234 411.348 55.2656C411.66 55.5078 412.262 55.7344 413.152 55.9453C414.59 56.2813 415.609 56.7266 416.211 57.2812C416.812 57.8281 417.113 58.5898 417.113 59.5664C417.113 60.6992 416.719 61.6016 415.93 62.2734C415.148 62.9375 414.129 63.2695 412.871 63.2695C411.512 63.2695 410.441 62.918 409.66 62.2148C408.887 61.5039 408.484 60.543 408.453 59.332ZM419.938 63V45.4805H422V52.418C422.258 51.8867 422.676 51.457 423.254 51.1289C423.84 50.8008 424.523 50.6367 425.305 50.6367C426.555 50.6367 427.523 51.0469 428.211 51.8672C428.898 52.6797 429.242 53.7812 429.242 55.1719V63H427.156V55.5117C427.156 54.5977 426.949 53.8945 426.535 53.4023C426.121 52.9023 425.543 52.6523 424.801 52.6523C423.973 52.6523 423.297 53 422.773 53.6953C422.258 54.3906 422 55.332 422 56.5195V63H419.938ZM432.395 47.1797C432.395 46.7812 432.531 46.4492 432.805 46.1836C433.078 45.9102 433.414 45.7734 433.812 45.7734C434.211 45.7734 434.551 45.9102 434.832 46.1836C435.113 46.4492 435.254 46.7812 435.254 47.1797C435.254 47.5625 435.113 47.8906 434.832 48.1641C434.551 48.4375 434.211 48.5742 433.812 48.5742C433.414 48.5742 433.078 48.4414 432.805 48.1758C432.531 47.9023 432.395 47.5703 432.395 47.1797ZM432.781 63V50.9062H434.844V63H432.781ZM438.734 68.1562V50.9062H440.609L440.703 52.6758C441.625 51.3164 443.008 50.6367 444.852 50.6367C446.531 50.6367 447.891 51.2383 448.93 52.4414C449.969 53.6289 450.492 55.1328 450.5 56.9531C450.5 58.7578 449.969 60.2617 448.906 61.4648C447.867 62.668 446.508 63.2695 444.828 63.2695C443.914 63.2695 443.109 63.0977 442.414 62.7539C441.719 62.4023 441.188 61.9336 440.82 61.3477V68.1562H438.734ZM440.773 56.9531C440.773 58.2656 441.141 59.3125 441.875 60.0938C442.625 60.8906 443.508 61.293 444.523 61.3008C445.641 61.3008 446.559 60.8984 447.277 60.0938C447.996 59.2812 448.355 58.2344 448.355 56.9531C448.355 55.6562 448.008 54.6055 447.312 53.8008C446.617 52.9883 445.695 52.582 444.547 52.582C443.508 52.582 442.617 52.9766 441.875 53.7656C441.141 54.5469 440.773 55.5703 440.773 56.8359V56.9531ZM452.305 59.332H454.414C454.43 60.6758 455.215 61.3477 456.77 61.3477C457.426 61.3477 457.938 61.1992 458.305 60.9023C458.672 60.6055 458.855 60.207 458.855 59.707C458.855 59.1914 458.68 58.7969 458.328 58.5234C457.977 58.2422 457.313 57.9922 456.336 57.7734C455.023 57.4688 454.074 57.0508 453.488 56.5195C452.902 55.9883 452.609 55.2539 452.609 54.3164C452.609 53.293 452.965 52.4258 453.676 51.7148C454.395 50.9961 455.379 50.6367 456.629 50.6367C457.777 50.6367 458.719 50.9883 459.453 51.6914C460.188 52.3789 460.57 53.3008 460.602 54.457H458.492C458.477 53.1914 457.836 52.5586 456.57 52.5586C455.977 52.5586 455.52 52.707 455.199 53.0039C454.887 53.3008 454.73 53.6953 454.73 54.1875C454.73 54.6641 454.887 55.0234 455.199 55.2656C455.512 55.5078 456.113 55.7344 457.004 55.9453C458.441 56.2813 459.461 56.7266 460.062 57.2812C460.664 57.8281 460.965 58.5898 460.965 59.5664C460.965 60.6992 460.57 61.6016 459.781 62.2734C459 62.9375 457.98 63.2695 456.723 63.2695C455.363 63.2695 454.293 62.918 453.512 62.2148C452.738 61.5039 452.336 60.543 452.305 59.332ZM462.758 61.7812C462.758 61.3828 462.898 61.0469 463.18 60.7734C463.461 60.5 463.801 60.3633 464.199 60.3633C464.613 60.3633 464.957 60.5078 465.23 60.7969C465.504 61.0781 465.641 61.4531 465.641 61.9219C465.641 62.625 465.48 63.3555 465.16 64.1133C464.84 64.8789 464.414 65.5547 463.883 66.1406L463.215 65.8828C463.66 65.1328 463.938 64.2266 464.047 63.1641C463.664 63.1328 463.352 62.9922 463.109 62.7422C462.875 62.4844 462.758 62.1641 462.758 61.7812ZM2.9375 105.332H5.04688C5.0625 106.676 5.84766 107.348 7.40234 107.348C8.05859 107.348 8.57031 107.199 8.9375 106.902C9.30469 106.605 9.48828 106.207 9.48828 105.707C9.48828 105.191 9.3125 104.797 8.96094 104.523C8.60938 104.242 7.94531 103.992 6.96875 103.773C5.65625 103.469 4.70703 103.051 4.12109 102.52C3.53516 101.988 3.24219 101.254 3.24219 100.316C3.24219 99.293 3.59766 98.4258 4.30859 97.7148C5.02734 96.9961 6.01172 96.6367 7.26172 96.6367C8.41016 96.6367 9.35156 96.9883 10.0859 97.6914C10.8203 98.3789 11.2031 99.3008 11.2344 100.457H9.125C9.10938 99.1914 8.46875 98.5586 7.20312 98.5586C6.60938 98.5586 6.15234 98.707 5.83203 99.0039C5.51953 99.3008 5.36328 99.6953 5.36328 100.188C5.36328 100.664 5.51953 101.023 5.83203 101.266C6.14453 101.508 6.74609 101.734 7.63672 101.945C9.07422 102.281 10.0938 102.727 10.6953 103.281C11.2969 103.828 11.5977 104.59 11.5977 105.566C11.5977 106.699 11.2031 107.602 10.4141 108.273C9.63281 108.937 8.61328 109.27 7.35547 109.27C5.99609 109.27 4.92578 108.918 4.14453 108.215C3.37109 107.504 2.96875 106.543 2.9375 105.332ZM13.4375 102.977C13.4375 101.117 13.9727 99.6055 15.043 98.4414C16.1289 97.2383 17.5352 96.6367 19.2617 96.6367C20.9414 96.6367 22.2773 97.1758 23.2695 98.2539C24.2617 99.3242 24.7578 100.836 24.7578 102.789V103.773H15.5703C15.6484 104.875 16.0273 105.746 16.707 106.387C17.3867 107.027 18.2539 107.348 19.3086 107.348C20.9883 107.348 22.0781 106.691 22.5781 105.379H24.6406C24.2578 106.613 23.6055 107.57 22.6836 108.25C21.7617 108.93 20.6211 109.27 19.2617 109.27C17.5352 109.27 16.1367 108.691 15.0664 107.535C13.9805 106.363 13.4375 104.844 13.4375 102.977ZM15.5938 101.922H22.6719C22.6563 100.898 22.3359 100.082 21.7109 99.4727C21.0859 98.8633 20.2695 98.5586 19.2617 98.5586C18.2539 98.5586 17.4219 98.8672 16.7656 99.4844C16.1094 100.102 15.7187 100.914 15.5938 101.922ZM26.4102 109L30.582 102.766L26.6797 96.9062H29.1289L31.9766 101.125L34.8594 96.9062H37.3086L33.3711 102.766L37.5664 109H35.1289L31.9766 104.395L28.8594 109H26.4102ZM39.0547 107.781C39.0547 107.383 39.1953 107.047 39.4766 106.773C39.7578 106.5 40.0977 106.363 40.4961 106.363C40.9102 106.363 41.2539 106.508 41.5273 106.797C41.8008 107.078 41.9375 107.453 41.9375 107.922C41.9375 108.625 41.7773 109.355 41.457 110.113C41.1367 110.879 40.7109 111.555 40.1797 112.141L39.5117 111.883C39.957 111.133 40.2344 110.227 40.3438 109.164C39.9609 109.133 39.6484 108.992 39.4062 108.742C39.1719 108.484 39.0547 108.164 39.0547 107.781ZM49.6953 109V92.1953H54.6641C56.3437 92.1953 57.6797 92.6758 58.6719 93.6367C59.6641 94.582 60.1602 95.8242 60.1602 97.3633C60.1602 98.8867 59.6641 100.117 58.6719 101.055C57.6953 101.984 56.3594 102.449 54.6641 102.449H51.875V109H49.6953ZM51.875 100.41H54.6641C55.6719 100.41 56.4688 100.141 57.0547 99.6016C57.6484 99.0547 57.9453 98.3086 57.9453 97.3633C57.9453 96.4023 57.6445 95.6406 57.043 95.0781C56.4492 94.5156 55.6563 94.2344 54.6641 94.2344H51.875V100.41ZM60.9688 94.2344V92.1953H75.0664V94.2344H69.1133V109H66.9219V94.2344H60.9688ZM76.2969 104.055H78.5C78.5156 105.109 78.8203 105.926 79.4141 106.504C80.0078 107.082 80.832 107.371 81.8867 107.371C82.832 107.371 83.5625 107.121 84.0781 106.621C84.6016 106.113 84.8633 105.434 84.8633 104.582C84.8633 103.879 84.5977 103.301 84.0664 102.848C83.543 102.387 82.6328 101.934 81.3359 101.488C79.7813 100.91 78.6289 100.27 77.8789 99.5664C77.1445 98.8477 76.7773 97.8477 76.7773 96.5664C76.7773 95.2227 77.1992 94.1016 78.043 93.2031C78.9102 92.3281 80.1055 91.8906 81.6289 91.8906C83.1367 91.8906 84.3242 92.3047 85.1914 93.1328C86.0586 93.9531 86.5078 95.1211 86.5391 96.6367H84.3359C84.3203 95.7695 84.0625 95.0898 83.5625 94.5977C83.0703 94.1055 82.4102 93.8594 81.582 93.8594C80.7852 93.8594 80.1523 94.082 79.6836 94.5273C79.2148 94.9727 78.9805 95.5977 78.9805 96.4023C78.9805 97.1523 79.2148 97.7344 79.6836 98.1484C80.1758 98.5469 81.0547 98.9961 82.3203 99.4961C84.0625 100.152 85.2852 100.832 85.9883 101.535C86.707 102.254 87.0703 103.223 87.0781 104.441C87.0781 105.926 86.6016 107.109 85.6484 107.992C84.6953 108.875 83.4336 109.316 81.8633 109.316C80.1523 109.316 78.8047 108.844 77.8203 107.898C76.8359 106.953 76.3281 105.672 76.2969 104.055ZM89.8672 109V92.1953H95.9141C98.5078 92.1953 100.57 92.9648 102.102 94.5039C103.656 96.043 104.434 98.0781 104.434 100.609C104.434 103.133 103.656 105.16 102.102 106.691C100.562 108.23 98.5 109 95.9141 109H89.8672ZM92.0469 106.961H95.9141C97.8516 106.961 99.3828 106.395 100.508 105.262C101.633 104.121 102.195 102.566 102.195 100.598C102.195 98.6133 101.637 97.0586 100.52 95.9336C99.4023 94.8008 97.8672 94.2344 95.9141 94.2344H92.0469V106.961ZM104.914 107.781C104.914 107.383 105.055 107.047 105.336 106.773C105.617 106.5 105.957 106.363 106.355 106.363C106.77 106.363 107.113 106.508 107.387 106.797C107.66 107.078 107.797 107.453 107.797 107.922C107.797 108.625 107.637 109.355 107.316 110.113C106.996 110.879 106.57 111.555 106.039 112.141L105.371 111.883C105.816 111.133 106.094 110.227 106.203 109.164C105.82 109.133 105.508 108.992 105.266 108.742C105.031 108.484 104.914 108.164 104.914 107.781ZM114.523 102.953C114.523 101.164 115.043 99.6602 116.082 98.4414C117.137 97.2383 118.504 96.6367 120.184 96.6367C122.027 96.6367 123.371 97.2773 124.215 98.5586V91.4805H126.277V109H124.438L124.309 107.219C123.379 108.578 121.996 109.262 120.16 109.27C118.48 109.27 117.121 108.676 116.082 107.488C115.043 106.27 114.523 104.758 114.523 102.953ZM116.656 102.953C116.656 104.25 117.004 105.305 117.699 106.117C118.395 106.922 119.32 107.324 120.477 107.324C121.5 107.324 122.379 106.93 123.113 106.141C123.863 105.344 124.238 104.32 124.238 103.07V102.953C124.238 101.656 123.863 100.609 123.113 99.8125C122.363 99.0078 121.492 98.6055 120.5 98.6055C119.383 98.6055 118.461 99.0156 117.734 99.8359C117.016 100.633 116.656 101.672 116.656 102.953ZM128.938 102.977C128.938 101.117 129.473 99.6055 130.543 98.4414C131.629 97.2383 133.035 96.6367 134.762 96.6367C136.441 96.6367 137.777 97.1758 138.77 98.2539C139.762 99.3242 140.258 100.836 140.258 102.789V103.773H131.07C131.148 104.875 131.527 105.746 132.207 106.387C132.887 107.027 133.754 107.348 134.809 107.348C136.488 107.348 137.578 106.691 138.078 105.379H140.141C139.758 106.613 139.105 107.57 138.184 108.25C137.262 108.93 136.121 109.27 134.762 109.27C133.035 109.27 131.637 108.691 130.566 107.535C129.48 106.363 128.938 104.844 128.938 102.977ZM131.094 101.922H138.172C138.156 100.898 137.836 100.082 137.211 99.4727C136.586 98.8633 135.77 98.5586 134.762 98.5586C133.754 98.5586 132.922 98.8672 132.266 99.4844C131.609 100.102 131.219 100.914 131.094 101.922ZM143.352 114.156V96.9062H145.227L145.32 98.6758C146.242 97.3164 147.625 96.6367 149.469 96.6367C151.148 96.6367 152.508 97.2383 153.547 98.4414C154.586 99.6289 155.109 101.133 155.117 102.953C155.117 104.758 154.586 106.262 153.523 107.465C152.484 108.668 151.125 109.27 149.445 109.27C148.531 109.27 147.727 109.098 147.031 108.754C146.336 108.402 145.805 107.934 145.438 107.348V114.156H143.352ZM145.391 102.953C145.391 104.266 145.758 105.313 146.492 106.094C147.242 106.891 148.125 107.293 149.141 107.301C150.258 107.301 151.176 106.898 151.895 106.094C152.613 105.281 152.973 104.234 152.973 102.953C152.973 101.656 152.625 100.605 151.93 99.8008C151.234 98.9883 150.312 98.582 149.164 98.582C148.125 98.582 147.234 98.9766 146.492 99.7656C145.758 100.547 145.391 101.57 145.391 102.836V102.953ZM157.953 109V96.9062H159.805L159.945 99.0156C160.187 98.3594 160.621 97.8242 161.246 97.4102C161.879 96.9961 162.652 96.7891 163.566 96.7891V98.8516C162.574 98.8516 161.758 99.1445 161.117 99.7305C160.414 100.371 160.047 101.324 160.016 102.59V109H157.953ZM164.75 102.977C164.75 101.117 165.285 99.6055 166.355 98.4414C167.441 97.2383 168.848 96.6367 170.574 96.6367C172.254 96.6367 173.59 97.1758 174.582 98.2539C175.574 99.3242 176.07 100.836 176.07 102.789V103.773H166.883C166.961 104.875 167.34 105.746 168.02 106.387C168.699 107.027 169.566 107.348 170.621 107.348C172.301 107.348 173.391 106.691 173.891 105.379H175.953C175.57 106.613 174.918 107.57 173.996 108.25C173.074 108.93 171.934 109.27 170.574 109.27C168.848 109.27 167.449 108.691 166.379 107.535C165.293 106.363 164.75 104.844 164.75 102.977ZM166.906 101.922H173.984C173.969 100.898 173.648 100.082 173.023 99.4727C172.398 98.8633 171.582 98.5586 170.574 98.5586C169.566 98.5586 168.734 98.8672 168.078 99.4844C167.422 100.102 167.031 100.914 166.906 101.922ZM178.109 105.332H180.219C180.234 106.676 181.02 107.348 182.574 107.348C183.23 107.348 183.742 107.199 184.109 106.902C184.477 106.605 184.66 106.207 184.66 105.707C184.66 105.191 184.484 104.797 184.133 104.523C183.781 104.242 183.117 103.992 182.141 103.773C180.828 103.469 179.879 103.051 179.293 102.52C178.707 101.988 178.414 101.254 178.414 100.316C178.414 99.293 178.77 98.4258 179.48 97.7148C180.199 96.9961 181.184 96.6367 182.434 96.6367C183.582 96.6367 184.523 96.9883 185.258 97.6914C185.992 98.3789 186.375 99.3008 186.406 100.457H184.297C184.281 99.1914 183.641 98.5586 182.375 98.5586C181.781 98.5586 181.324 98.707 181.004 99.0039C180.691 99.3008 180.535 99.6953 180.535 100.188C180.535 100.664 180.691 101.023 181.004 101.266C181.316 101.508 181.918 101.734 182.809 101.945C184.246 102.281 185.266 102.727 185.867 103.281C186.469 103.828 186.77 104.59 186.77 105.566C186.77 106.699 186.375 107.602 185.586 108.273C184.805 108.937 183.785 109.27 182.527 109.27C181.168 109.27 180.098 108.918 179.316 108.215C178.543 107.504 178.141 106.543 178.109 105.332ZM188.703 105.332H190.812C190.828 106.676 191.613 107.348 193.168 107.348C193.824 107.348 194.336 107.199 194.703 106.902C195.07 106.605 195.254 106.207 195.254 105.707C195.254 105.191 195.078 104.797 194.727 104.523C194.375 104.242 193.711 103.992 192.734 103.773C191.422 103.469 190.473 103.051 189.887 102.52C189.301 101.988 189.008 101.254 189.008 100.316C189.008 99.293 189.363 98.4258 190.074 97.7148C190.793 96.9961 191.777 96.6367 193.027 96.6367C194.176 96.6367 195.117 96.9883 195.852 97.6914C196.586 98.3789 196.969 99.3008 197 100.457H194.891C194.875 99.1914 194.234 98.5586 192.969 98.5586C192.375 98.5586 191.918 98.707 191.598 99.0039C191.285 99.3008 191.129 99.6953 191.129 100.188C191.129 100.664 191.285 101.023 191.598 101.266C191.91 101.508 192.512 101.734 193.402 101.945C194.84 102.281 195.859 102.727 196.461 103.281C197.062 103.828 197.363 104.59 197.363 105.566C197.363 106.699 196.969 107.602 196.18 108.273C195.398 108.937 194.379 109.27 193.121 109.27C191.762 109.27 190.691 108.918 189.91 108.215C189.137 107.504 188.734 106.543 188.703 105.332ZM199.871 93.1797C199.871 92.7812 200.008 92.4492 200.281 92.1836C200.555 91.9102 200.891 91.7734 201.289 91.7734C201.688 91.7734 202.027 91.9102 202.309 92.1836C202.59 92.4492 202.73 92.7812 202.73 93.1797C202.73 93.5625 202.59 93.8906 202.309 94.1641C202.027 94.4375 201.688 94.5742 201.289 94.5742C200.891 94.5742 200.555 94.4414 200.281 94.1758C200.008 93.9023 199.871 93.5703 199.871 93.1797ZM200.258 109V96.9062H202.32V109H200.258ZM206.762 107.488C205.629 106.301 205.062 104.789 205.062 102.953C205.062 101.109 205.629 99.5977 206.762 98.418C207.918 97.2305 209.398 96.6367 211.203 96.6367C212.992 96.6367 214.457 97.2305 215.598 98.418C216.746 99.5898 217.32 101.102 217.32 102.953C217.32 104.805 216.746 106.316 215.598 107.488C214.465 108.676 213 109.27 211.203 109.27C209.398 109.27 207.918 108.676 206.762 107.488ZM207.195 102.953C207.195 104.219 207.563 105.27 208.297 106.105C209.031 106.934 210.008 107.348 211.227 107.348C212.414 107.348 213.367 106.93 214.086 106.094C214.82 105.266 215.188 104.219 215.188 102.953C215.188 101.656 214.82 100.609 214.086 99.8125C213.367 98.9766 212.414 98.5586 211.227 98.5586C210.008 98.5586 209.031 98.9766 208.297 99.8125C207.563 100.609 207.195 101.656 207.195 102.953ZM220.016 109V96.9062H221.855L221.984 98.5586C222.648 97.2773 223.781 96.6367 225.383 96.6367C226.633 96.6367 227.602 97.0469 228.289 97.8672C228.977 98.6797 229.32 99.7812 229.32 101.172V109H227.234V101.512C227.234 100.598 227.027 99.8945 226.613 99.4023C226.199 98.9023 225.621 98.6523 224.879 98.6523C224.051 98.6523 223.375 99 222.852 99.6953C222.336 100.391 222.078 101.332 222.078 102.52V109H220.016ZM231.898 107.781C231.898 107.383 232.039 107.047 232.32 106.773C232.602 106.5 232.941 106.363 233.34 106.363C233.754 106.363 234.098 106.508 234.371 106.797C234.645 107.078 234.781 107.453 234.781 107.922C234.781 108.625 234.621 109.355 234.301 110.113C233.98 110.879 233.555 111.555 233.023 112.141L232.355 111.883C232.801 111.133 233.078 110.227 233.188 109.164C232.805 109.133 232.492 108.992 232.25 108.742C232.016 108.484 231.898 108.164 231.898 107.781ZM241.602 105.332H243.711C243.727 106.676 244.512 107.348 246.066 107.348C246.723 107.348 247.234 107.199 247.602 106.902C247.969 106.605 248.152 106.207 248.152 105.707C248.152 105.191 247.977 104.797 247.625 104.523C247.273 104.242 246.609 103.992 245.633 103.773C244.32 103.469 243.371 103.051 242.785 102.52C242.199 101.988 241.906 101.254 241.906 100.316C241.906 99.293 242.262 98.4258 242.973 97.7148C243.691 96.9961 244.676 96.6367 245.926 96.6367C247.074 96.6367 248.016 96.9883 248.75 97.6914C249.484 98.3789 249.867 99.3008 249.898 100.457H247.789C247.773 99.1914 247.133 98.5586 245.867 98.5586C245.273 98.5586 244.816 98.707 244.496 99.0039C244.184 99.3008 244.027 99.6953 244.027 100.188C244.027 100.664 244.184 101.023 244.496 101.266C244.809 101.508 245.41 101.734 246.301 101.945C247.738 102.281 248.758 102.727 249.359 103.281C249.961 103.828 250.262 104.59 250.262 105.566C250.262 106.699 249.867 107.602 249.078 108.273C248.297 108.937 247.277 109.27 246.02 109.27C244.66 109.27 243.59 108.918 242.809 108.215C242.035 107.504 241.633 106.543 241.602 105.332ZM253.801 107.488C252.668 106.301 252.102 104.789 252.102 102.953C252.102 101.109 252.668 99.5977 253.801 98.418C254.957 97.2305 256.438 96.6367 258.242 96.6367C260.031 96.6367 261.496 97.2305 262.637 98.418C263.785 99.5898 264.359 101.102 264.359 102.953C264.359 104.805 263.785 106.316 262.637 107.488C261.504 108.676 260.039 109.27 258.242 109.27C256.438 109.27 254.957 108.676 253.801 107.488ZM254.234 102.953C254.234 104.219 254.602 105.27 255.336 106.105C256.07 106.934 257.047 107.348 258.266 107.348C259.453 107.348 260.406 106.93 261.125 106.094C261.859 105.266 262.227 104.219 262.227 102.953C262.227 101.656 261.859 100.609 261.125 99.8125C260.406 98.9766 259.453 98.5586 258.266 98.5586C257.047 98.5586 256.07 98.9766 255.336 99.8125C254.602 100.609 254.234 101.656 254.234 102.953ZM266.375 102.977C266.375 101.156 266.926 99.6445 268.027 98.4414C269.16 97.2383 270.566 96.6367 272.246 96.6367C273.621 96.6367 274.789 96.9922 275.75 97.7031C276.711 98.4062 277.336 99.3945 277.625 100.668H275.562C275.32 99.9961 274.906 99.4766 274.32 99.1094C273.742 98.7422 273.059 98.5586 272.27 98.5586C271.184 98.5586 270.281 98.9766 269.562 99.8125C268.859 100.664 268.508 101.719 268.508 102.977C268.508 104.211 268.867 105.25 269.586 106.094C270.305 106.922 271.219 107.34 272.328 107.348C273.094 107.348 273.77 107.156 274.355 106.773C274.949 106.383 275.352 105.867 275.562 105.227H277.648C277.328 106.508 276.688 107.504 275.727 108.215C274.773 108.918 273.613 109.27 272.246 109.27C270.535 109.27 269.129 108.676 268.027 107.488C266.926 106.316 266.375 104.812 266.375 102.977ZM280.098 93.1797C280.098 92.7812 280.234 92.4492 280.508 92.1836C280.781 91.9102 281.117 91.7734 281.516 91.7734C281.914 91.7734 282.254 91.9102 282.535 92.1836C282.816 92.4492 282.957 92.7812 282.957 93.1797C282.957 93.5625 282.816 93.8906 282.535 94.1641C282.254 94.4375 281.914 94.5742 281.516 94.5742C281.117 94.5742 280.781 94.4414 280.508 94.1758C280.234 93.9023 280.098 93.5703 280.098 93.1797ZM280.484 109V96.9062H282.547V109H280.484ZM285.547 105.859C285.547 103.953 286.676 102.785 288.934 102.355L292.625 101.652V101.055C292.625 99.3906 291.883 98.5586 290.398 98.5586C289.664 98.5586 289.066 98.7539 288.605 99.1445C288.152 99.5352 287.926 100.078 287.926 100.773H285.887C285.918 99.6016 286.348 98.6172 287.176 97.8203C288.012 97.0313 289.086 96.6367 290.398 96.6367C291.758 96.6367 292.816 97.0156 293.574 97.7734C294.34 98.5234 294.723 99.5937 294.723 100.984V109H292.848L292.754 107.348C292.418 107.941 291.93 108.41 291.289 108.754C290.648 109.098 289.91 109.27 289.074 109.27C288.004 109.27 287.148 108.961 286.508 108.344C285.867 107.727 285.547 106.898 285.547 105.859ZM287.633 105.836C287.633 106.313 287.793 106.684 288.113 106.949C288.434 107.215 288.891 107.348 289.484 107.348C290.539 107.348 291.355 106.945 291.934 106.141C292.395 105.508 292.625 104.766 292.625 103.914V103.457L289.32 104.172C288.758 104.312 288.336 104.508 288.055 104.758C287.773 105.008 287.633 105.367 287.633 105.836ZM298.203 109V91.4805H300.266V109H298.203ZM308.211 105.859C308.211 103.953 309.34 102.785 311.598 102.355L315.289 101.652V101.055C315.289 99.3906 314.547 98.5586 313.062 98.5586C312.328 98.5586 311.73 98.7539 311.27 99.1445C310.816 99.5352 310.59 100.078 310.59 100.773H308.551C308.582 99.6016 309.012 98.6172 309.84 97.8203C310.676 97.0313 311.75 96.6367 313.062 96.6367C314.422 96.6367 315.48 97.0156 316.238 97.7734C317.004 98.5234 317.387 99.5937 317.387 100.984V109H315.512L315.418 107.348C315.082 107.941 314.594 108.41 313.953 108.754C313.312 109.098 312.574 109.27 311.738 109.27C310.668 109.27 309.813 108.961 309.172 108.344C308.531 107.727 308.211 106.898 308.211 105.859ZM310.297 105.836C310.297 106.313 310.457 106.684 310.777 106.949C311.098 107.215 311.555 107.348 312.148 107.348C313.203 107.348 314.02 106.945 314.598 106.141C315.059 105.508 315.289 104.766 315.289 103.914V103.457L311.984 104.172C311.422 104.312 311 104.508 310.719 104.758C310.438 105.008 310.297 105.367 310.297 105.836ZM320.797 109V96.9062H322.637L322.766 98.5586C323.43 97.2773 324.563 96.6367 326.164 96.6367C327.414 96.6367 328.383 97.0469 329.07 97.8672C329.758 98.6797 330.102 99.7812 330.102 101.172V109H328.016V101.512C328.016 100.598 327.809 99.8945 327.395 99.4023C326.98 98.9023 326.402 98.6523 325.66 98.6523C324.832 98.6523 324.156 99 323.633 99.6953C323.117 100.391 322.859 101.332 322.859 102.52V109H320.797ZM332.293 109L336.465 102.766L332.562 96.9062H335.012L337.859 101.125L340.742 96.9062H343.191L339.254 102.766L343.449 109H341.012L337.859 104.395L334.742 109H332.293ZM345.512 93.1797C345.512 92.7812 345.648 92.4492 345.922 92.1836C346.195 91.9102 346.531 91.7734 346.93 91.7734C347.328 91.7734 347.668 91.9102 347.949 92.1836C348.23 92.4492 348.371 92.7812 348.371 93.1797C348.371 93.5625 348.23 93.8906 347.949 94.1641C347.668 94.4375 347.328 94.5742 346.93 94.5742C346.531 94.5742 346.195 94.4414 345.922 94.1758C345.648 93.9023 345.512 93.5703 345.512 93.1797ZM345.898 109V96.9062H347.961V109H345.898ZM350.703 102.977C350.703 101.117 351.238 99.6055 352.309 98.4414C353.395 97.2383 354.801 96.6367 356.527 96.6367C358.207 96.6367 359.543 97.1758 360.535 98.2539C361.527 99.3242 362.023 100.836 362.023 102.789V103.773H352.836C352.914 104.875 353.293 105.746 353.973 106.387C354.652 107.027 355.52 107.348 356.574 107.348C358.254 107.348 359.344 106.691 359.844 105.379H361.906C361.523 106.613 360.871 107.57 359.949 108.25C359.027 108.93 357.887 109.27 356.527 109.27C354.801 109.27 353.402 108.691 352.332 107.535C351.246 106.363 350.703 104.844 350.703 102.977ZM352.859 101.922H359.938C359.922 100.898 359.602 100.082 358.977 99.4727C358.352 98.8633 357.535 98.5586 356.527 98.5586C355.52 98.5586 354.688 98.8672 354.031 99.4844C353.375 100.102 352.984 100.914 352.859 101.922ZM363.336 98.8281V96.9062H365.598L365.621 93.8828H367.707L367.684 96.9062H370.777V98.8281H367.66L367.613 105.309C367.613 106.027 367.734 106.535 367.977 106.832C368.227 107.129 368.68 107.277 369.336 107.277C369.867 107.277 370.348 107.203 370.777 107.055V108.906C370.348 109.078 369.781 109.164 369.078 109.164C369.047 109.164 369.016 109.164 368.984 109.164C367.812 109.164 366.945 108.883 366.383 108.32C365.828 107.773 365.551 106.926 365.551 105.777C365.551 105.746 365.551 105.715 365.551 105.684L365.598 98.8281H363.336ZM371.902 96.9062H374.105L377.305 105.59L377.539 106.504L377.785 105.59L380.973 96.9062H383.199L376.602 114.156H374.422L376.438 108.836L371.902 96.9062ZM383.094 107.781C383.094 107.383 383.234 107.047 383.516 106.773C383.797 106.5 384.137 106.363 384.535 106.363C384.949 106.363 385.293 106.508 385.566 106.797C385.84 107.078 385.977 107.453 385.977 107.922C385.977 108.625 385.816 109.355 385.496 110.113C385.176 110.879 384.75 111.555 384.219 112.141L383.551 111.883C383.996 111.133 384.273 110.227 384.383 109.164C384 109.133 383.688 108.992 383.445 108.742C383.211 108.484 383.094 108.164 383.094 107.781ZM394.402 107.488C393.27 106.301 392.703 104.789 392.703 102.953C392.703 101.109 393.27 99.5977 394.402 98.418C395.559 97.2305 397.039 96.6367 398.844 96.6367C400.633 96.6367 402.098 97.2305 403.238 98.418C404.387 99.5898 404.961 101.102 404.961 102.953C404.961 104.805 404.387 106.316 403.238 107.488C402.105 108.676 400.641 109.27 398.844 109.27C397.039 109.27 395.559 108.676 394.402 107.488ZM394.836 102.953C394.836 104.219 395.203 105.27 395.938 106.105C396.672 106.934 397.648 107.348 398.867 107.348C400.055 107.348 401.008 106.93 401.727 106.094C402.461 105.266 402.828 104.219 402.828 102.953C402.828 101.656 402.461 100.609 401.727 99.8125C401.008 98.9766 400.055 98.5586 398.867 98.5586C397.648 98.5586 396.672 98.9766 395.938 99.8125C395.203 100.609 394.836 101.656 394.836 102.953ZM407.797 109V96.9062H409.648L409.789 99.0156C410.031 98.3594 410.465 97.8242 411.09 97.4102C411.723 96.9961 412.496 96.7891 413.41 96.7891V98.8516C412.418 98.8516 411.602 99.1445 410.961 99.7305C410.258 100.371 409.891 101.324 409.859 102.59V109H407.797ZM419.773 102.977C419.773 101.117 420.309 99.6055 421.379 98.4414C422.465 97.2383 423.871 96.6367 425.598 96.6367C427.277 96.6367 428.613 97.1758 429.605 98.2539C430.598 99.3242 431.094 100.836 431.094 102.789V103.773H421.906C421.984 104.875 422.363 105.746 423.043 106.387C423.723 107.027 424.59 107.348 425.645 107.348C427.324 107.348 428.414 106.691 428.914 105.379H430.977C430.594 106.613 429.941 107.57 429.02 108.25C428.098 108.93 426.957 109.27 425.598 109.27C423.871 109.27 422.473 108.691 421.402 107.535C420.316 106.363 419.773 104.844 419.773 102.977ZM421.93 101.922H429.008C428.992 100.898 428.672 100.082 428.047 99.4727C427.422 98.8633 426.605 98.5586 425.598 98.5586C424.59 98.5586 423.758 98.8672 423.102 99.4844C422.445 100.102 422.055 100.914 421.93 101.922ZM432.488 96.9062H434.691L437.891 105.59L438.125 106.504L438.371 105.59L441.559 96.9062H443.785L439.156 109H437.094L432.488 96.9062ZM444.758 102.977C444.758 101.117 445.293 99.6055 446.363 98.4414C447.449 97.2383 448.855 96.6367 450.582 96.6367C452.262 96.6367 453.598 97.1758 454.59 98.2539C455.582 99.3242 456.078 100.836 456.078 102.789V103.773H446.891C446.969 104.875 447.348 105.746 448.027 106.387C448.707 107.027 449.574 107.348 450.629 107.348C452.309 107.348 453.398 106.691 453.898 105.379H455.961C455.578 106.613 454.926 107.57 454.004 108.25C453.082 108.93 451.941 109.27 450.582 109.27C448.855 109.27 447.457 108.691 446.387 107.535C445.301 106.363 444.758 104.844 444.758 102.977ZM446.914 101.922H453.992C453.977 100.898 453.656 100.082 453.031 99.4727C452.406 98.8633 451.59 98.5586 450.582 98.5586C449.574 98.5586 448.742 98.8672 448.086 99.4844C447.43 100.102 447.039 100.914 446.914 101.922ZM459.008 109V96.9062H460.848L460.977 98.5586C461.641 97.2773 462.773 96.6367 464.375 96.6367C465.625 96.6367 466.594 97.0469 467.281 97.8672C467.969 98.6797 468.312 99.7812 468.312 101.172V109H466.227V101.512C466.227 100.598 466.02 99.8945 465.605 99.4023C465.191 98.9023 464.613 98.6523 463.871 98.6523C463.043 98.6523 462.367 99 461.844 99.6953C461.328 100.391 461.07 101.332 461.07 102.52V109H459.008ZM0.78125 158.34C1.19531 158.465 1.61719 158.527 2.04688 158.527C2.71875 158.527 3.19531 158.348 3.47656 157.988C3.75781 157.629 3.89844 157.059 3.89844 156.277V142.906H5.96094V156.324C5.96094 159.059 4.76172 160.426 2.36328 160.426C1.73828 160.426 1.21094 160.359 0.78125 160.227V158.34ZM3.51172 139.18C3.51172 138.781 3.64844 138.449 3.92188 138.184C4.19531 137.91 4.53125 137.773 4.92969 137.773C5.32812 137.773 5.66797 137.91 5.94922 138.184C6.23047 138.449 6.37109 138.781 6.37109 139.18C6.37109 139.562 6.23047 139.891 5.94922 140.164C5.66797 140.438 5.32812 140.574 4.92969 140.574C4.53125 140.574 4.19531 140.441 3.92188 140.176C3.64844 139.902 3.51172 139.57 3.51172 139.18ZM9.51172 150.723V142.906H11.5742V150.395C11.5742 151.34 11.7734 152.059 12.1719 152.551C12.5781 153.035 13.1484 153.277 13.8828 153.277C14.6953 153.277 15.3594 152.949 15.875 152.293C16.3906 151.637 16.6484 150.746 16.6484 149.621V142.906H18.7109V155H16.8594L16.7422 153.348C16.1328 154.629 15.0195 155.27 13.4023 155.27C12.1523 155.27 11.1914 154.867 10.5195 154.062C9.84766 153.25 9.51172 152.137 9.51172 150.723ZM21.4766 151.332H23.5859C23.6016 152.676 24.3867 153.348 25.9414 153.348C26.5977 153.348 27.1094 153.199 27.4766 152.902C27.8437 152.605 28.0273 152.207 28.0273 151.707C28.0273 151.191 27.8516 150.797 27.5 150.523C27.1484 150.242 26.4844 149.992 25.5078 149.773C24.1953 149.469 23.2461 149.051 22.6602 148.52C22.0742 147.988 21.7812 147.254 21.7812 146.316C21.7812 145.293 22.1367 144.426 22.8477 143.715C23.5664 142.996 24.5508 142.637 25.8008 142.637C26.9492 142.637 27.8906 142.988 28.625 143.691C29.3594 144.379 29.7422 145.301 29.7734 146.457H27.6641C27.6484 145.191 27.0078 144.559 25.7422 144.559C25.1484 144.559 24.6914 144.707 24.3711 145.004C24.0586 145.301 23.9023 145.695 23.9023 146.188C23.9023 146.664 24.0586 147.023 24.3711 147.266C24.6836 147.508 25.2852 147.734 26.1758 147.945C27.6133 148.281 28.6328 148.727 29.2344 149.281C29.8359 149.828 30.1367 150.59 30.1367 151.566C30.1367 152.699 29.7422 153.602 28.9531 154.273C28.1719 154.937 27.1523 155.27 25.8945 155.27C24.5352 155.27 23.4648 154.918 22.6836 154.215C21.9102 153.504 21.5078 152.543 21.4766 151.332ZM31.3438 144.828V142.906H33.6055L33.6289 139.883H35.7148L35.6914 142.906H38.7852V144.828H35.668L35.6211 151.309C35.6211 152.027 35.7422 152.535 35.9844 152.832C36.2344 153.129 36.6875 153.277 37.3438 153.277C37.875 153.277 38.3555 153.203 38.7852 153.055V154.906C38.3555 155.078 37.7891 155.164 37.0859 155.164C37.0547 155.164 37.0234 155.164 36.9922 155.164C35.8203 155.164 34.9531 154.883 34.3906 154.32C33.8359 153.773 33.5586 152.926 33.5586 151.777C33.5586 151.746 33.5586 151.715 33.5586 151.684L33.6055 144.828H31.3438ZM45.3125 148.977C45.3125 147.156 45.8633 145.645 46.9648 144.441C48.0977 143.238 49.5039 142.637 51.1836 142.637C52.5586 142.637 53.7266 142.992 54.6875 143.703C55.6484 144.406 56.2734 145.395 56.5625 146.668H54.5C54.2578 145.996 53.8438 145.477 53.2578 145.109C52.6797 144.742 51.9961 144.559 51.207 144.559C50.1211 144.559 49.2188 144.977 48.5 145.812C47.7969 146.664 47.4453 147.719 47.4453 148.977C47.4453 150.211 47.8047 151.25 48.5234 152.094C49.2422 152.922 50.1563 153.34 51.2656 153.348C52.0312 153.348 52.707 153.156 53.293 152.773C53.8867 152.383 54.2891 151.867 54.5 151.227H56.5859C56.2656 152.508 55.625 153.504 54.6641 154.215C53.7109 154.918 52.5508 155.27 51.1836 155.27C49.4727 155.27 48.0664 154.676 46.9648 153.488C45.8633 152.316 45.3125 150.812 45.3125 148.977ZM58.625 151.859C58.625 149.953 59.7539 148.785 62.0117 148.355L65.7031 147.652V147.055C65.7031 145.391 64.9609 144.559 63.4766 144.559C62.7422 144.559 62.1445 144.754 61.6836 145.145C61.2305 145.535 61.0039 146.078 61.0039 146.773H58.9648C58.9961 145.602 59.4258 144.617 60.2539 143.82C61.0898 143.031 62.1641 142.637 63.4766 142.637C64.8359 142.637 65.8945 143.016 66.6523 143.773C67.418 144.523 67.8008 145.594 67.8008 146.984V155H65.9258L65.832 153.348C65.4961 153.941 65.0078 154.41 64.3672 154.754C63.7266 155.098 62.9883 155.27 62.1523 155.27C61.082 155.27 60.2266 154.961 59.5859 154.344C58.9453 153.727 58.625 152.898 58.625 151.859ZM60.7109 151.836C60.7109 152.313 60.8711 152.684 61.1914 152.949C61.5117 153.215 61.9688 153.348 62.5625 153.348C63.6172 153.348 64.4336 152.945 65.0117 152.141C65.4727 151.508 65.7031 150.766 65.7031 149.914V149.457L62.3984 150.172C61.8359 150.312 61.4141 150.508 61.1328 150.758C60.8516 151.008 60.7109 151.367 60.7109 151.836ZM71.3516 155V142.906H73.2031L73.3438 145.016C73.5859 144.359 74.0195 143.824 74.6445 143.41C75.2773 142.996 76.0508 142.789 76.9648 142.789V144.852C75.9727 144.852 75.1562 145.145 74.5156 145.73C73.8125 146.371 73.4453 147.324 73.4141 148.59V155H71.3516ZM79.0508 139.18C79.0508 138.781 79.1875 138.449 79.4609 138.184C79.7344 137.91 80.0703 137.773 80.4688 137.773C80.8672 137.773 81.207 137.91 81.4883 138.184C81.7695 138.449 81.9102 138.781 81.9102 139.18C81.9102 139.562 81.7695 139.891 81.4883 140.164C81.207 140.438 80.8672 140.574 80.4688 140.574C80.0703 140.574 79.7344 140.441 79.4609 140.176C79.1875 139.902 79.0508 139.57 79.0508 139.18ZM79.4375 155V142.906H81.5V155H79.4375ZM85.2266 155V142.906H87.0664L87.1953 144.559C87.8594 143.277 88.9922 142.637 90.5938 142.637C91.8438 142.637 92.8125 143.047 93.5 143.867C94.1875 144.68 94.5312 145.781 94.5312 147.172V155H92.4453V147.512C92.4453 146.598 92.2383 145.895 91.8242 145.402C91.4102 144.902 90.832 144.652 90.0898 144.652C89.2617 144.652 88.5859 145 88.0625 145.695C87.5469 146.391 87.2891 147.332 87.2891 148.52V155H85.2266ZM97.0625 151.953C97.0625 150.898 97.4766 150.074 98.3047 149.48C97.7891 148.777 97.5352 147.945 97.543 146.984C97.543 145.719 97.9648 144.68 98.8086 143.867C99.6758 143.055 100.805 142.645 102.195 142.637C102.773 142.637 103.352 142.727 103.93 142.906H108.312V144.723H106.203C106.602 145.379 106.801 146.133 106.801 146.984C106.801 148.219 106.379 149.242 105.535 150.055C104.707 150.867 103.594 151.277 102.195 151.285C101.219 151.285 100.348 151.066 99.582 150.629C99.2617 150.949 99.1016 151.352 99.1016 151.836C99.1016 152.219 99.2422 152.52 99.5234 152.738C99.8047 152.949 100.176 153.055 100.637 153.055H103.848C105.098 153.055 106.047 153.34 106.695 153.91C107.344 154.48 107.668 155.293 107.668 156.348C107.668 157.629 107.215 158.629 106.309 159.348C105.41 160.066 104.184 160.426 102.629 160.426C100.934 160.426 99.6289 160.098 98.7148 159.441C97.8008 158.785 97.3438 157.855 97.3438 156.652C97.3438 155.676 97.7852 154.949 98.668 154.473C98.207 154.23 97.8242 153.887 97.5195 153.441C97.2148 152.996 97.0625 152.5 97.0625 151.953ZM99.3828 156.582C99.3828 157.238 99.668 157.738 100.238 158.082C100.809 158.426 101.605 158.598 102.629 158.598C103.59 158.598 104.328 158.414 104.844 158.047C105.367 157.68 105.629 157.145 105.629 156.441C105.629 155.402 104.902 154.883 103.449 154.883H101.141C100.594 154.914 100.164 155.074 99.8516 155.363C99.5391 155.652 99.3828 156.059 99.3828 156.582ZM99.582 146.984C99.582 147.703 99.8203 148.297 100.297 148.766C100.781 149.227 101.406 149.457 102.172 149.457C102.937 149.457 103.559 149.227 104.035 148.766C104.52 148.297 104.762 147.703 104.762 146.984C104.762 146.25 104.52 145.648 104.035 145.18C103.559 144.703 102.937 144.465 102.172 144.465C101.406 144.465 100.781 144.703 100.297 145.18C99.8203 145.648 99.582 146.25 99.582 146.984ZM113.48 144.805V142.906H115.66V141.055C115.66 139.852 115.977 138.922 116.609 138.266C117.242 137.602 118.133 137.27 119.281 137.27C119.922 137.27 120.469 137.363 120.922 137.551V139.426C120.461 139.23 119.973 139.133 119.457 139.133C118.324 139.133 117.754 139.789 117.746 141.102V142.906H120.746V144.805H117.746V155H115.66V144.805H113.48ZM123.652 153.488C122.52 152.301 121.953 150.789 121.953 148.953C121.953 147.109 122.52 145.598 123.652 144.418C124.809 143.23 126.289 142.637 128.094 142.637C129.883 142.637 131.348 143.23 132.488 144.418C133.637 145.59 134.211 147.102 134.211 148.953C134.211 150.805 133.637 152.316 132.488 153.488C131.355 154.676 129.891 155.27 128.094 155.27C126.289 155.27 124.809 154.676 123.652 153.488ZM124.086 148.953C124.086 150.219 124.453 151.27 125.188 152.105C125.922 152.934 126.898 153.348 128.117 153.348C129.305 153.348 130.258 152.93 130.977 152.094C131.711 151.266 132.078 150.219 132.078 148.953C132.078 147.656 131.711 146.609 130.977 145.812C130.258 144.977 129.305 144.559 128.117 144.559C126.898 144.559 125.922 144.977 125.188 145.812C124.453 146.609 124.086 147.656 124.086 148.953ZM137.047 155V142.906H138.898L139.039 145.016C139.281 144.359 139.715 143.824 140.34 143.41C140.973 142.996 141.746 142.789 142.66 142.789V144.852C141.668 144.852 140.852 145.145 140.211 145.73C139.508 146.371 139.141 147.324 139.109 148.59V155H137.047ZM148.566 142.906H150.77L153.969 151.59L154.203 152.504L154.449 151.59L157.637 142.906H159.863L153.266 160.156H151.086L153.102 154.836L148.566 142.906ZM162.582 153.488C161.449 152.301 160.883 150.789 160.883 148.953C160.883 147.109 161.449 145.598 162.582 144.418C163.738 143.23 165.219 142.637 167.023 142.637C168.813 142.637 170.277 143.23 171.418 144.418C172.566 145.59 173.141 147.102 173.141 148.953C173.141 150.805 172.566 152.316 171.418 153.488C170.285 154.676 168.82 155.27 167.023 155.27C165.219 155.27 163.738 154.676 162.582 153.488ZM163.016 148.953C163.016 150.219 163.383 151.27 164.117 152.105C164.852 152.934 165.828 153.348 167.047 153.348C168.234 153.348 169.188 152.93 169.906 152.094C170.641 151.266 171.008 150.219 171.008 148.953C171.008 147.656 170.641 146.609 169.906 145.812C169.188 144.977 168.234 144.559 167.047 144.559C165.828 144.559 164.852 144.977 164.117 145.812C163.383 146.609 163.016 147.656 163.016 148.953ZM175.66 150.723V142.906H177.723V150.395C177.723 151.34 177.922 152.059 178.32 152.551C178.727 153.035 179.297 153.277 180.031 153.277C180.844 153.277 181.508 152.949 182.023 152.293C182.539 151.637 182.797 150.746 182.797 149.621V142.906H184.859V155H183.008L182.891 153.348C182.281 154.629 181.168 155.27 179.551 155.27C178.301 155.27 177.34 154.867 176.668 154.062C175.996 153.25 175.66 152.137 175.66 150.723ZM188.656 155V142.906H190.508L190.648 145.016C190.891 144.359 191.324 143.824 191.949 143.41C192.582 142.996 193.355 142.789 194.27 142.789V144.852C193.277 144.852 192.461 145.145 191.82 145.73C191.117 146.371 190.75 147.324 190.719 148.59V155H188.656ZM195.781 151.332H197.891C197.906 152.676 198.691 153.348 200.246 153.348C200.902 153.348 201.414 153.199 201.781 152.902C202.148 152.605 202.332 152.207 202.332 151.707C202.332 151.191 202.156 150.797 201.805 150.523C201.453 150.242 200.789 149.992 199.812 149.773C198.5 149.469 197.551 149.051 196.965 148.52C196.379 147.988 196.086 147.254 196.086 146.316C196.086 145.293 196.441 144.426 197.152 143.715C197.871 142.996 198.855 142.637 200.105 142.637C201.254 142.637 202.195 142.988 202.93 143.691C203.664 144.379 204.047 145.301 204.078 146.457H201.969C201.953 145.191 201.312 144.559 200.047 144.559C199.453 144.559 198.996 144.707 198.676 145.004C198.363 145.301 198.207 145.695 198.207 146.188C198.207 146.664 198.363 147.023 198.676 147.266C198.988 147.508 199.59 147.734 200.48 147.945C201.918 148.281 202.938 148.727 203.539 149.281C204.141 149.828 204.441 150.59 204.441 151.566C204.441 152.699 204.047 153.602 203.258 154.273C202.477 154.937 201.457 155.27 200.199 155.27C198.84 155.27 197.77 154.918 196.988 154.215C196.215 153.504 195.812 152.543 195.781 151.332ZM206.281 148.977C206.281 147.117 206.816 145.605 207.887 144.441C208.973 143.238 210.379 142.637 212.105 142.637C213.785 142.637 215.121 143.176 216.113 144.254C217.105 145.324 217.602 146.836 217.602 148.789V149.773H208.414C208.492 150.875 208.871 151.746 209.551 152.387C210.23 153.027 211.098 153.348 212.152 153.348C213.832 153.348 214.922 152.691 215.422 151.379H217.484C217.102 152.613 216.449 153.57 215.527 154.25C214.605 154.93 213.465 155.27 212.105 155.27C210.379 155.27 208.98 154.691 207.91 153.535C206.824 152.363 206.281 150.844 206.281 148.977ZM208.438 147.922H215.516C215.5 146.898 215.18 146.082 214.555 145.473C213.93 144.863 213.113 144.559 212.105 144.559C211.098 144.559 210.266 144.867 209.609 145.484C208.953 146.102 208.562 146.914 208.438 147.922ZM220.602 155V137.48H222.664V155H220.602ZM224.902 144.805V142.906H227.082V141.055C227.082 139.852 227.398 138.922 228.031 138.266C228.664 137.602 229.555 137.27 230.703 137.27C231.344 137.27 231.891 137.363 232.344 137.551V139.426C231.883 139.23 231.395 139.133 230.879 139.133C229.746 139.133 229.176 139.789 229.168 141.102V142.906H232.168V144.805H229.168V155H227.082V144.805H224.902ZM239.305 155V142.906H241.145L241.273 144.559C241.578 143.98 242.02 143.516 242.598 143.164C243.184 142.812 243.859 142.637 244.625 142.637C246.352 142.637 247.527 143.406 248.152 144.945C248.941 143.406 250.16 142.637 251.809 142.637C253.059 142.637 254.02 143.047 254.691 143.867C255.371 144.68 255.711 145.781 255.711 147.172V155H253.648V147.512C253.648 146.598 253.445 145.895 253.039 145.402C252.633 144.902 252.062 144.652 251.328 144.652C250.516 144.652 249.852 144.984 249.336 145.648C248.82 146.313 248.555 147.215 248.539 148.355V155H246.477V147.512C246.477 146.598 246.273 145.895 245.867 145.402C245.461 144.902 244.887 144.652 244.145 144.652C243.316 144.652 242.645 145 242.129 145.695C241.621 146.391 241.367 147.332 241.367 148.52V155H239.305ZM259.895 153.488C258.762 152.301 258.195 150.789 258.195 148.953C258.195 147.109 258.762 145.598 259.895 144.418C261.051 143.23 262.531 142.637 264.336 142.637C266.125 142.637 267.59 143.23 268.73 144.418C269.879 145.59 270.453 147.102 270.453 148.953C270.453 150.805 269.879 152.316 268.73 153.488C267.598 154.676 266.133 155.27 264.336 155.27C262.531 155.27 261.051 154.676 259.895 153.488ZM260.328 148.953C260.328 150.219 260.695 151.27 261.43 152.105C262.164 152.934 263.141 153.348 264.359 153.348C265.547 153.348 266.5 152.93 267.219 152.094C267.953 151.266 268.32 150.219 268.32 148.953C268.32 147.656 267.953 146.609 267.219 145.812C266.5 144.977 265.547 144.559 264.359 144.559C263.141 144.559 262.164 144.977 261.43 145.812C260.695 146.609 260.328 147.656 260.328 148.953ZM273.289 155V142.906H275.141L275.281 145.016C275.523 144.359 275.957 143.824 276.582 143.41C277.215 142.996 277.988 142.789 278.902 142.789V144.852C277.91 144.852 277.094 145.145 276.453 145.73C275.75 146.371 275.383 147.324 275.352 148.59V155H273.289ZM280.086 148.977C280.086 147.117 280.621 145.605 281.691 144.441C282.777 143.238 284.184 142.637 285.91 142.637C287.59 142.637 288.926 143.176 289.918 144.254C290.91 145.324 291.406 146.836 291.406 148.789V149.773H282.219C282.297 150.875 282.676 151.746 283.355 152.387C284.035 153.027 284.902 153.348 285.957 153.348C287.637 153.348 288.727 152.691 289.227 151.379H291.289C290.906 152.613 290.254 153.57 289.332 154.25C288.41 154.93 287.27 155.27 285.91 155.27C284.184 155.27 282.785 154.691 281.715 153.535C280.629 152.363 280.086 150.844 280.086 148.977ZM282.242 147.922H289.32C289.305 146.898 288.984 146.082 288.359 145.473C287.734 144.863 286.918 144.559 285.91 144.559C284.902 144.559 284.07 144.867 283.414 145.484C282.758 146.102 282.367 146.914 282.242 147.922ZM292.953 153.781C292.953 153.352 293.098 152.996 293.387 152.715C293.676 152.434 294.035 152.293 294.465 152.293C294.895 152.293 295.254 152.434 295.543 152.715C295.832 152.996 295.977 153.352 295.977 153.781C295.977 154.195 295.828 154.547 295.531 154.836C295.234 155.125 294.879 155.27 294.465 155.27C294.035 155.27 293.676 155.125 293.387 154.836C293.098 154.547 292.953 154.195 292.953 153.781Z" fill="#22356F"/>
</svg>
