<svg width="232" height="15" viewBox="0 0 232 15" fill="none" xmlns="http://www.w3.org/2000/svg">
<path d="M0.0527344 11V1.19727H1.61816V5.18945H6.34863V1.19727H7.9209V11H6.34863V6.67285H1.61816V11H0.0527344ZM10.4639 10.1182C9.78483 9.43913 9.44531 8.55273 9.44531 7.45898C9.44531 6.36523 9.78483 5.47884 10.4639 4.7998C11.1566 4.1071 12.0293 3.76074 13.082 3.76074C14.1348 3.76074 15.0075 4.1071 15.7002 4.7998C16.3929 5.49251 16.7393 6.37891 16.7393 7.45898C16.7393 8.53906 16.3929 9.42546 15.7002 10.1182C15.0075 10.8109 14.1348 11.1572 13.082 11.1572C12.0293 11.1572 11.1566 10.8109 10.4639 10.1182ZM11.5713 5.79102C11.1794 6.22396 10.9834 6.77995 10.9834 7.45898C10.9834 8.13802 11.1794 8.69401 11.5713 9.12695C11.9678 9.56445 12.4759 9.7832 13.0957 9.7832C13.7201 9.7832 14.2236 9.56445 14.6064 9.12695C14.9984 8.69401 15.1943 8.13802 15.1943 7.45898C15.1943 6.77995 14.9984 6.22396 14.6064 5.79102C14.2236 5.35352 13.7201 5.13477 13.0957 5.13477C12.4759 5.13477 11.9678 5.35352 11.5713 5.79102ZM18.2363 11V3.91797H19.5215L19.6309 4.86816C19.8132 4.53092 20.0706 4.26204 20.4033 4.06152C20.736 3.861 21.1188 3.76074 21.5518 3.76074C22.568 3.76074 23.2493 4.20052 23.5957 5.08008C24.0605 4.20052 24.7601 3.76074 25.6943 3.76074C26.4189 3.76074 26.9772 3.99544 27.3691 4.46484C27.7656 4.93424 27.9639 5.58138 27.9639 6.40625V11H26.4805V6.7002C26.4805 5.71126 26.084 5.2168 25.291 5.2168C24.8581 5.2168 24.5072 5.39681 24.2383 5.75684C23.9694 6.1123 23.835 6.60449 23.835 7.2334V11H22.3516V6.7002C22.3516 5.71126 21.9551 5.2168 21.1621 5.2168C20.7292 5.2168 20.3805 5.39453 20.1162 5.75C19.8519 6.10547 19.7197 6.59993 19.7197 7.2334V11H18.2363ZM29.3516 7.47266C29.3516 6.38802 29.6683 5.50163 30.3018 4.81348C30.9352 4.11165 31.7692 3.76074 32.8037 3.76074C33.7972 3.76074 34.5879 4.07975 35.1758 4.71777C35.7637 5.35124 36.0576 6.24674 36.0576 7.4043V7.97852H30.8896C30.9215 8.54362 31.1175 8.99479 31.4775 9.33203C31.8376 9.66927 32.2956 9.83789 32.8516 9.83789C33.7083 9.83789 34.2712 9.50293 34.54 8.83301H35.9961C35.7682 9.57585 35.3809 10.1501 34.834 10.5557C34.2917 10.9567 33.6149 11.1572 32.8037 11.1572C31.7829 11.1572 30.9489 10.82 30.3018 10.1455C29.6683 9.47103 29.3516 8.58008 29.3516 7.47266ZM30.9033 6.81641H34.5537C34.5492 6.2832 34.3851 5.85938 34.0615 5.54492C33.7425 5.22591 33.3187 5.06641 32.79 5.06641C32.2614 5.06641 31.8262 5.22819 31.4844 5.55176C31.1471 5.87533 30.9535 6.29688 30.9033 6.81641ZM62.8682 11L66.7988 1.19727H68.1182L72.0488 11H70.6543L69.6152 8.40918H65.2881L64.2695 11H62.8682ZM65.7256 7.21973H69.1846L67.626 3.37109L67.4482 2.83789L67.2637 3.37109L65.7256 7.21973ZM73.375 11V0.780273H74.5781V4.90918C75.0749 4.16178 75.8587 3.78809 76.9297 3.78809C77.9186 3.78809 78.7116 4.139 79.3086 4.84082C79.9238 5.54264 80.2314 6.41992 80.2314 7.47266C80.2314 8.52539 79.9284 9.40723 79.3223 10.1182C78.7161 10.8109 77.9232 11.1572 76.9434 11.1572C75.8678 11.1572 75.0612 10.7585 74.5234 9.96094L74.4482 11H73.375ZM74.5645 7.54102C74.5645 8.2793 74.7786 8.87858 75.207 9.33887C75.6354 9.7946 76.1527 10.0225 76.7588 10.0225C77.4287 10.0225 77.9665 9.78776 78.3721 9.31836C78.7822 8.8444 78.9873 8.22917 78.9873 7.47266C78.9873 6.72526 78.7777 6.11914 78.3584 5.6543C77.9346 5.17578 77.3968 4.93652 76.7451 4.93652C76.1572 4.93652 75.6445 5.17122 75.207 5.64062C74.7786 6.09635 74.5645 6.70703 74.5645 7.47266V7.54102ZM82.3779 10.1182C81.7171 9.42546 81.3867 8.54362 81.3867 7.47266C81.3867 6.39714 81.7171 5.5153 82.3779 4.82715C83.0524 4.13444 83.916 3.78809 84.9688 3.78809C86.0124 3.78809 86.8669 4.13444 87.5322 4.82715C88.2021 5.51074 88.5371 6.39258 88.5371 7.47266C88.5371 8.55273 88.2021 9.43457 87.5322 10.1182C86.8714 10.8109 86.0169 11.1572 84.9688 11.1572C83.916 11.1572 83.0524 10.8109 82.3779 10.1182ZM82.6309 7.47266C82.6309 8.21094 82.8451 8.82389 83.2734 9.31152C83.7018 9.7946 84.2715 10.0361 84.9824 10.0361C85.6751 10.0361 86.2311 9.79232 86.6504 9.30469C87.0788 8.82161 87.293 8.21094 87.293 7.47266C87.293 6.71615 87.0788 6.10547 86.6504 5.64062C86.2311 5.15299 85.6751 4.90918 84.9824 4.90918C84.2715 4.90918 83.7018 5.15299 83.2734 5.64062C82.8451 6.10547 82.6309 6.71615 82.6309 7.47266ZM90.0068 8.50488V3.94531H91.21V8.31348C91.21 8.86491 91.3262 9.28418 91.5586 9.57129C91.7956 9.85384 92.1283 9.99512 92.5566 9.99512C93.0306 9.99512 93.418 9.80371 93.7188 9.4209C94.0195 9.03809 94.1699 8.51855 94.1699 7.8623V3.94531H95.373V11H94.293L94.2246 10.0361C93.8691 10.7835 93.2197 11.1572 92.2764 11.1572C91.5472 11.1572 90.9867 10.9225 90.5947 10.4531C90.2028 9.97917 90.0068 9.32975 90.0068 8.50488ZM96.5625 5.06641V3.94531H97.8818L97.8955 2.18164H99.1123L99.0986 3.94531H100.903V5.06641H99.085L99.0576 8.84668C99.0576 9.26595 99.1283 9.56217 99.2695 9.73535C99.4154 9.90853 99.6797 9.99512 100.062 9.99512C100.372 9.99512 100.653 9.95182 100.903 9.86523V10.9453C100.653 11.0456 100.322 11.0957 99.9121 11.0957C99.8939 11.0957 99.8757 11.0957 99.8574 11.0957C99.1738 11.0957 98.668 10.9316 98.3398 10.6035C98.0163 10.2845 97.8545 9.79004 97.8545 9.12012C97.8545 9.10189 97.8545 9.08366 97.8545 9.06543L97.8818 5.06641H96.5625ZM127.871 8.11523H129.156C129.165 8.73047 129.343 9.20671 129.689 9.54395C130.036 9.88118 130.517 10.0498 131.132 10.0498C131.683 10.0498 132.109 9.90397 132.41 9.6123C132.715 9.31608 132.868 8.9196 132.868 8.42285C132.868 8.0127 132.713 7.67546 132.403 7.41113C132.098 7.14225 131.567 6.87793 130.811 6.61816C129.904 6.28092 129.231 5.90723 128.794 5.49707C128.366 5.0778 128.151 4.49447 128.151 3.74707C128.151 2.96322 128.397 2.30924 128.89 1.78516C129.396 1.27474 130.093 1.01953 130.981 1.01953C131.861 1.01953 132.554 1.26107 133.06 1.74414C133.565 2.22266 133.827 2.90397 133.846 3.78809H132.561C132.551 3.28223 132.401 2.88574 132.109 2.59863C131.822 2.31152 131.437 2.16797 130.954 2.16797C130.489 2.16797 130.12 2.29785 129.847 2.55762C129.573 2.81738 129.437 3.18197 129.437 3.65137C129.437 4.08887 129.573 4.42839 129.847 4.66992C130.134 4.90234 130.646 5.16439 131.385 5.45605C132.401 5.83887 133.114 6.23535 133.524 6.64551C133.944 7.06478 134.156 7.62988 134.16 8.34082C134.16 9.20671 133.882 9.89714 133.326 10.4121C132.77 10.9271 132.034 11.1846 131.118 11.1846C130.12 11.1846 129.334 10.9089 128.76 10.3574C128.186 9.80599 127.889 9.05859 127.871 8.11523ZM135.186 7.48633C135.186 6.40169 135.498 5.51986 136.122 4.84082C136.756 4.139 137.576 3.78809 138.583 3.78809C139.563 3.78809 140.342 4.10254 140.921 4.73145C141.5 5.35579 141.789 6.23763 141.789 7.37695V7.95117H136.43C136.475 8.59375 136.696 9.10189 137.093 9.47559C137.489 9.84928 137.995 10.0361 138.61 10.0361C139.59 10.0361 140.226 9.65332 140.518 8.8877H141.721C141.497 9.60775 141.117 10.166 140.579 10.5625C140.041 10.959 139.376 11.1572 138.583 11.1572C137.576 11.1572 136.76 10.82 136.136 10.1455C135.502 9.46191 135.186 8.57552 135.186 7.48633ZM136.443 6.87109H140.572C140.563 6.27409 140.376 5.79785 140.012 5.44238C139.647 5.08691 139.171 4.90918 138.583 4.90918C137.995 4.90918 137.51 5.08919 137.127 5.44922C136.744 5.80924 136.516 6.2832 136.443 6.87109ZM143.58 11V3.94531H144.66L144.742 5.17578C144.883 4.79297 145.136 4.48079 145.501 4.23926C145.87 3.99772 146.321 3.87695 146.854 3.87695V5.08008C146.276 5.08008 145.799 5.25098 145.426 5.59277C145.016 5.96647 144.801 6.52246 144.783 7.26074V11H143.58ZM147.497 3.94531H148.782L150.648 9.01074L150.785 9.54395L150.929 9.01074L152.788 3.94531H154.087L151.387 11H150.184L147.497 3.94531ZM155.181 1.77148C155.181 1.53906 155.26 1.34538 155.42 1.19043C155.579 1.03092 155.775 0.951172 156.008 0.951172C156.24 0.951172 156.438 1.03092 156.603 1.19043C156.767 1.34538 156.849 1.53906 156.849 1.77148C156.849 1.99479 156.767 2.1862 156.603 2.3457C156.438 2.50521 156.24 2.58496 156.008 2.58496C155.775 2.58496 155.579 2.50749 155.42 2.35254C155.26 2.19303 155.181 1.99935 155.181 1.77148ZM155.406 11V3.94531H156.609V11H155.406ZM158.209 7.48633C158.209 6.42448 158.53 5.54264 159.173 4.84082C159.834 4.139 160.654 3.78809 161.634 3.78809C162.436 3.78809 163.117 3.99544 163.678 4.41016C164.238 4.82031 164.603 5.39681 164.771 6.13965H163.568C163.427 5.74772 163.186 5.44466 162.844 5.23047C162.507 5.01628 162.108 4.90918 161.647 4.90918C161.014 4.90918 160.488 5.15299 160.068 5.64062C159.658 6.13737 159.453 6.7526 159.453 7.48633C159.453 8.20638 159.663 8.8125 160.082 9.30469C160.501 9.78776 161.035 10.0316 161.682 10.0361C162.128 10.0361 162.522 9.92448 162.864 9.70117C163.211 9.47331 163.445 9.17253 163.568 8.79883H164.785C164.598 9.54622 164.225 10.1273 163.664 10.542C163.108 10.9521 162.431 11.1572 161.634 11.1572C160.636 11.1572 159.815 10.8109 159.173 10.1182C158.53 9.43457 158.209 8.55729 158.209 7.48633ZM165.824 7.48633C165.824 6.40169 166.136 5.51986 166.761 4.84082C167.394 4.139 168.215 3.78809 169.222 3.78809C170.201 3.78809 170.981 4.10254 171.56 4.73145C172.138 5.35579 172.428 6.23763 172.428 7.37695V7.95117H167.068C167.114 8.59375 167.335 9.10189 167.731 9.47559C168.128 9.84928 168.634 10.0361 169.249 10.0361C170.229 10.0361 170.865 9.65332 171.156 8.8877H172.359C172.136 9.60775 171.756 10.166 171.218 10.5625C170.68 10.959 170.015 11.1572 169.222 11.1572C168.215 11.1572 167.399 10.82 166.774 10.1455C166.141 9.46191 165.824 8.57552 165.824 7.48633ZM167.082 6.87109H171.211C171.202 6.27409 171.015 5.79785 170.65 5.44238C170.286 5.08691 169.81 4.90918 169.222 4.90918C168.634 4.90918 168.148 5.08919 167.766 5.44922C167.383 5.80924 167.155 6.2832 167.082 6.87109ZM173.617 8.86035H174.848C174.857 9.64421 175.315 10.0361 176.222 10.0361C176.604 10.0361 176.903 9.94954 177.117 9.77637C177.331 9.60319 177.438 9.37077 177.438 9.0791C177.438 8.77832 177.336 8.54818 177.131 8.38867C176.926 8.22461 176.538 8.07878 175.969 7.95117C175.203 7.77344 174.649 7.52962 174.308 7.21973C173.966 6.90983 173.795 6.48145 173.795 5.93457C173.795 5.33757 174.002 4.83171 174.417 4.41699C174.836 3.99772 175.41 3.78809 176.14 3.78809C176.81 3.78809 177.359 3.99316 177.787 4.40332C178.215 4.80436 178.439 5.34212 178.457 6.0166H177.227C177.217 5.27832 176.844 4.90918 176.105 4.90918C175.759 4.90918 175.493 4.99577 175.306 5.16895C175.123 5.34212 175.032 5.57227 175.032 5.85938C175.032 6.13737 175.123 6.34701 175.306 6.48828C175.488 6.62956 175.839 6.76172 176.358 6.88477C177.197 7.08073 177.792 7.34049 178.143 7.66406C178.493 7.98307 178.669 8.42741 178.669 8.99707C178.669 9.65788 178.439 10.1842 177.979 10.5762C177.523 10.9635 176.928 11.1572 176.194 11.1572C175.401 11.1572 174.777 10.9521 174.321 10.542C173.87 10.1273 173.635 9.56673 173.617 8.86035ZM206.307 11V1.19727H209.034C209.978 1.19727 210.725 1.4388 211.276 1.92188C211.828 2.40039 212.104 3.04753 212.104 3.86328C212.104 4.74284 211.753 5.4082 211.051 5.85938C211.575 6.04622 211.98 6.34701 212.268 6.76172C212.559 7.17188 212.705 7.65039 212.705 8.19727C212.705 9.04492 212.413 9.72396 211.83 10.2344C211.247 10.7448 210.461 11 209.472 11H206.307ZM207.578 9.81055H209.472C210.069 9.81055 210.538 9.66699 210.88 9.37988C211.226 9.08822 211.399 8.6849 211.399 8.16992C211.399 7.67318 211.229 7.28581 210.887 7.00781C210.549 6.72982 210.078 6.59082 209.472 6.59082H207.578V9.81055ZM207.578 5.41504H209.089C209.613 5.41504 210.03 5.2806 210.34 5.01172C210.654 4.73828 210.812 4.37826 210.812 3.93164C210.812 3.4349 210.654 3.05436 210.34 2.79004C210.03 2.52116 209.595 2.38672 209.034 2.38672H207.578V5.41504ZM214.318 11V0.780273H215.521V11H214.318ZM218.112 10.1182C217.451 9.42546 217.121 8.54362 217.121 7.47266C217.121 6.39714 217.451 5.5153 218.112 4.82715C218.787 4.13444 219.65 3.78809 220.703 3.78809C221.747 3.78809 222.601 4.13444 223.267 4.82715C223.937 5.51074 224.271 6.39258 224.271 7.47266C224.271 8.55273 223.937 9.43457 223.267 10.1182C222.606 10.8109 221.751 11.1572 220.703 11.1572C219.65 11.1572 218.787 10.8109 218.112 10.1182ZM218.365 7.47266C218.365 8.21094 218.579 8.82389 219.008 9.31152C219.436 9.7946 220.006 10.0361 220.717 10.0361C221.41 10.0361 221.965 9.79232 222.385 9.30469C222.813 8.82161 223.027 8.21094 223.027 7.47266C223.027 6.71615 222.813 6.10547 222.385 5.64062C221.965 5.15299 221.41 4.90918 220.717 4.90918C220.006 4.90918 219.436 5.15299 219.008 5.64062C218.579 6.10547 218.365 6.71615 218.365 7.47266ZM225.297 9.22266C225.297 8.60742 225.538 8.12663 226.021 7.78027C225.721 7.37012 225.573 6.88477 225.577 6.32422C225.577 5.58594 225.823 4.97982 226.315 4.50586C226.821 4.0319 227.48 3.79264 228.291 3.78809C228.628 3.78809 228.965 3.84049 229.303 3.94531H231.859V5.00488H230.629C230.861 5.3877 230.978 5.82747 230.978 6.32422C230.978 7.04427 230.731 7.64128 230.239 8.11523C229.756 8.58919 229.107 8.82845 228.291 8.83301C227.721 8.83301 227.213 8.7054 226.767 8.4502C226.58 8.63704 226.486 8.87174 226.486 9.1543C226.486 9.3776 226.568 9.55306 226.732 9.68066C226.896 9.80371 227.113 9.86523 227.382 9.86523H229.255C229.984 9.86523 230.538 10.0316 230.916 10.3643C231.294 10.6969 231.483 11.1709 231.483 11.7861C231.483 12.5335 231.219 13.1169 230.69 13.5361C230.166 13.9554 229.451 14.165 228.544 14.165C227.555 14.165 226.794 13.9736 226.261 13.5908C225.728 13.208 225.461 12.6657 225.461 11.9639C225.461 11.3942 225.718 10.9704 226.233 10.6924C225.965 10.5511 225.741 10.3506 225.563 10.0908C225.386 9.83105 225.297 9.54167 225.297 9.22266ZM226.65 11.9229C226.65 12.3057 226.817 12.5973 227.149 12.7979C227.482 12.9984 227.947 13.0986 228.544 13.0986C229.104 13.0986 229.535 12.9915 229.836 12.7773C230.141 12.5632 230.294 12.251 230.294 11.8408C230.294 11.2347 229.87 10.9316 229.022 10.9316H227.676C227.357 10.9499 227.106 11.0433 226.924 11.2119C226.742 11.3805 226.65 11.6175 226.65 11.9229ZM226.767 6.32422C226.767 6.74349 226.906 7.08984 227.184 7.36328C227.466 7.63216 227.831 7.7666 228.277 7.7666C228.724 7.7666 229.086 7.63216 229.364 7.36328C229.647 7.08984 229.788 6.74349 229.788 6.32422C229.788 5.89583 229.647 5.54492 229.364 5.27148C229.086 4.99349 228.724 4.85449 228.277 4.85449C227.831 4.85449 227.466 4.99349 227.184 5.27148C226.906 5.54492 226.767 5.89583 226.767 6.32422Z" fill="#22356F"/>
</svg>
